<svg width="1920" height="2781" viewBox="0 0 1920 2781" fill="none" xmlns="http://www.w3.org/2000/svg">
<mask id="mask0_14_3227" style="mask-type:alpha" maskUnits="userSpaceOnUse" x="0" y="0" width="1920" height="2781">
<rect width="1920" height="2781" fill="#D9D9D9"/>
</mask>
<g mask="url(#mask0_14_3227)">
<path fill-rule="evenodd" clip-rule="evenodd" d="M2073.43 175.448C2036.22 204.112 2011.94 246.936 2009.84 293.863L1985.69 833.308C2161.1 681.161 2296.32 477.057 2358.27 237.321C2368.84 196.415 2410.57 171.823 2451.48 182.393C2492.38 192.964 2516.98 234.694 2506.41 275.6C2424.24 593.557 2227.87 856.99 1976.69 1034.43L1972.66 1124.27C1972.57 1126.45 1970.86 1128.21 1968.69 1128.37C1966.45 1128.54 1964.71 1130.41 1964.71 1132.66V2683.7C1964.71 2766.54 1897.56 2833.7 1814.71 2833.7H79.5306C-3.31211 2833.7 -70.4694 2766.54 -70.4694 2683.7V1673.01C-116.031 1754.6 -152.269 1845.37 -177.709 1943.82C-188.279 1984.72 -230.009 2009.32 -270.915 1998.75C-311.822 1988.17 -336.413 1946.44 -325.843 1905.54C-276.263 1713.68 -188.948 1543.79 -70.4694 1407.58V996.449C-70.4694 990.068 -65.2971 984.896 -58.9168 984.896C-52.7374 984.896 -47.6521 980.033 -47.3757 973.86L-47.2265 970.527C-46.4956 954.202 -67.4248 949.164 -73.5583 964.311C-92.4707 1011.02 -108.662 1060.05 -121.917 1111.21C-121.983 1111.47 -122.049 1111.72 -122.115 1111.98C-133.515 1156.09 -176.418 1183.71 -220.509 1176.98C-223.448 1176.53 -226.393 1175.92 -229.334 1175.16C-276.389 1163 -304.677 1115 -292.518 1067.95C-215.51 769.94 -48.0138 523.87 186.257 373.649C421.477 222.82 717.343 173.002 1040.74 256.572C1040.74 256.572 1040.74 256.572 1040.74 256.572C1043.76 257.35 1046.69 258.276 1049.55 259.339C1223.35 297.491 1404.29 287.029 1575.72 236.117C1587.39 232.651 1599.01 228.998 1610.59 225.16L1702.86 190.213C2023.49 53.2776 2292.76 -227.614 2389.74 -593.182C2389.97 -594.067 2390.21 -594.952 2390.44 -595.838C2390.79 -597.167 2391.14 -598.498 2391.48 -599.829C2391.52 -599.977 2391.56 -600.125 2391.6 -600.273C2399.2 -629.682 2420.8 -651.761 2447.42 -661.216C2462.35 -666.519 2478.86 -667.85 2495.36 -664.277C2496.51 -664.028 2497.66 -663.754 2498.81 -663.457C2545.87 -651.297 2574.16 -603.294 2562 -556.239C2493.34 -290.539 2345.61 -62.5445 2152.82 109.631C2127.17 132.543 2100.72 154.466 2073.55 175.358C2073.51 175.388 2073.47 175.418 2073.43 175.448Z" fill="url(#paint0_linear_14_3227)"/>
<path opacity="0.1" fill-rule="evenodd" clip-rule="evenodd" d="M1916.41 1344.84C1915.97 1347.23 1913.82 1348.93 1911.39 1348.79C1908.88 1348.64 1906.68 1350.45 1906.33 1352.94L1655.62 3169.83C1644.3 3251.89 1568.59 3309.24 1486.52 3297.92L-468.315 3028.17C-550.38 3016.84 -607.727 2941.14 -596.403 2859.07L-429.17 1647.16C-497.299 1738.51 -555.673 1843.26 -602.11 1959.61C-617.76 1998.82 -662.01 2017.24 -700.945 2000.74C-739.88 1984.25 -758.757 1939.1 -743.108 1899.89C-659.763 1691.06 -539.742 1512.3 -391.659 1375.32L-323.92 884.43C-322.947 877.377 -316.44 872.448 -309.386 873.421C-302.545 874.365 -296.175 869.751 -294.939 862.957L-293.304 853.97C-288.951 830.048 -318.367 818.616 -330.209 839.84C-330.212 839.845 -330.216 839.852 -330.219 839.857C-359.408 892.259 -385.844 947.882 -409.24 1006.5C-427.242 1051.61 -478.144 1072.79 -522.932 1053.82C-567.721 1034.85 -589.435 982.906 -571.433 937.801C-440.215 609.031 -218.414 353.599 61.285 217.508C342.299 80.7769 675.079 67.9318 1018.21 213.272C1018.25 213.287 1018.28 213.303 1018.32 213.318C1020.57 214.275 1022.81 215.287 1025.04 216.299C1028.89 218.048 1032.75 219.796 1036.72 221.259C1188.7 277.286 1351.08 297.15 1513.21 284.384C1513.26 284.38 1513.31 284.376 1513.36 284.372C1520.87 283.773 1528.31 282.523 1535.63 280.736L1887.28 194.889C1894.39 193.152 1901.36 190.914 1908.13 188.103C2233.4 52.9006 2518.66 -214.03 2664.62 -579.722C2677.24 -611.351 2706.04 -631.218 2737.57 -633.725C2748.19 -634.57 2759.12 -633.444 2769.85 -630.132C2772.69 -629.256 2775.51 -628.227 2778.31 -627.042C2783.91 -624.67 2789.15 -621.784 2793.99 -618.46C2827.91 -595.192 2842.56 -550.489 2826.81 -511.022C2693.7 -177.511 2455.56 85.5677 2171.59 254.266C2132.18 277.679 2103.57 316.172 2095.36 361.273L1974.64 1024.77C2197.52 874.364 2383.87 655.649 2492.94 382.364C2508.59 343.153 2552.84 324.736 2591.78 341.228C2630.71 357.72 2649.59 402.875 2633.94 442.086C2494.63 791.121 2239.58 1062.28 1937.66 1228L1916.41 1344.84Z" fill="url(#paint1_linear_14_3227)"/>
<circle opacity="0.3" cx="219.733" cy="1246.73" r="444.733" transform="rotate(180 219.733 1246.73)" stroke="white" stroke-width="2"/>
<circle opacity="0.3" cx="2180.73" cy="1346.73" r="444.733" transform="rotate(180 2180.73 1346.73)" stroke="white" stroke-width="2"/>
<circle opacity="0.3" cx="949.733" cy="445.733" r="444.733" transform="rotate(180 949.733 445.733)" stroke="white" stroke-width="2"/>
<circle opacity="0.3" cx="-216.267" cy="805.733" r="444.733" transform="rotate(180 -216.267 805.733)" stroke="white" stroke-width="2"/>
<circle opacity="0.3" cx="1991.73" cy="480.733" r="444.733" transform="rotate(180 1991.73 480.733)" stroke="white" stroke-width="2"/>
<rect x="1782" y="1482.68" width="30" height="30" rx="5" transform="rotate(-25 1782 1482.68)" fill="#FF304E"/>
<rect opacity="0.2" x="51" y="1792.34" width="15" height="15" rx="5" transform="rotate(-25 51 1792.34)" fill="#F1EFFD"/>
<rect x="1906" y="2178.75" width="42" height="42" rx="5" transform="rotate(-25 1906 2178.75)" fill="#F2C94C"/>
<rect x="1230" y="2482.16" width="24" height="24" rx="5" transform="rotate(-25 1230 2482.16)" fill="#C8BFF9"/>
<rect x="301" y="2226.34" width="15" height="15" rx="5" transform="rotate(-25 301 2226.34)" fill="#2D9CDB"/>
<path d="M688.113 2403.67C686.946 2401.17 688.029 2398.2 690.531 2397.03L703.22 2391.11C705.722 2389.95 708.697 2391.03 709.864 2393.53L715.781 2406.22C716.948 2408.72 715.865 2411.7 713.362 2412.86L700.674 2418.78C698.171 2419.95 695.197 2418.87 694.03 2416.36L688.113 2403.67Z" fill="#FF8E15"/>
<rect x="1810" y="2791.14" width="24" height="24" rx="5" transform="rotate(-25 1810 2791.14)" fill="#FF5837"/>
<path opacity="0.2" d="M18.4745 2734.84L24.4899 2768.96L-8.06204 2757.11L18.4745 2734.84Z" fill="#F2994A"/>
<path d="M458.856 1381.32L492.97 1387.34L470.704 1413.87L458.856 1381.32Z" fill="#F2C94C"/>
<circle cx="11" cy="2108" r="25" fill="#4473FA"/>
<rect x="1688" y="1799" width="16" height="16" fill="#D9D9D9"/>
</g>
<defs>
<linearGradient id="paint0_linear_14_3227" x1="63.0301" y1="2133.8" x2="4011.09" y2="1985.25" gradientUnits="userSpaceOnUse">
<stop stop-color="#FF2F4E"/>
<stop offset="1" stop-color="#FF8E15"/>
</linearGradient>
<linearGradient id="paint1_linear_14_3227" x1="-351.465" y1="2223.14" x2="4012.31" y2="2666.28" gradientUnits="userSpaceOnUse">
<stop stop-color="#FF2F4E"/>
<stop offset="1" stop-color="#FF8E15"/>
</linearGradient>
</defs>
</svg>
