<svg width="1870" height="3823" viewBox="0 0 1870 3823" fill="none" xmlns="http://www.w3.org/2000/svg">
<rect y="3417.68" width="30" height="30" rx="5" transform="rotate(-25 0 3417.68)" fill="#BCECD5"/>
<path opacity="0.4" d="M1448.56 3465L1459.72 3505.56L1419.16 3516.72C1412.98 3494.32 1426.14 3471.17 1448.56 3465Z" fill="#765FEF"/>
<path d="M118.672 2523.51C118.165 2523.43 117.654 2523.63 117.331 2524.02L112.4 2530.09C112.076 2530.49 111.99 2531.03 112.173 2531.51L114.963 2538.82C115.146 2539.29 115.57 2539.64 116.077 2539.72L123.797 2540.96C124.304 2541.04 124.815 2540.84 125.139 2540.44L130.07 2534.38C130.393 2533.98 130.48 2533.44 130.297 2532.96L127.507 2525.65C127.324 2525.17 126.899 2524.83 126.393 2524.75L118.672 2523.51Z" fill="#379C6B"/>
<path d="M106.672 2803.51C106.165 2803.43 105.654 2803.63 105.331 2804.02L100.4 2810.09C100.076 2810.49 99.9897 2811.03 100.173 2811.51L102.963 2818.82C103.146 2819.29 103.57 2819.64 104.077 2819.72L111.797 2820.96C112.304 2821.04 112.815 2820.84 113.139 2820.44L118.07 2814.38C118.393 2813.98 118.48 2813.44 118.297 2812.96L115.507 2805.65C115.324 2805.17 114.899 2804.83 114.393 2804.75L106.672 2803.51Z" fill="#FFCD1D"/>
<path d="M1795.67 3637.51C1795.17 3637.43 1794.65 3637.63 1794.33 3638.02L1789.4 3644.09C1789.08 3644.49 1788.99 3645.03 1789.17 3645.51L1791.96 3652.82C1792.15 3653.29 1792.57 3653.64 1793.08 3653.72L1800.8 3654.96C1801.3 3655.04 1801.82 3654.84 1802.14 3654.44L1807.07 3648.38C1807.39 3647.98 1807.48 3647.44 1807.3 3646.96L1804.51 3639.65C1804.32 3639.17 1803.9 3638.83 1803.39 3638.75L1795.67 3637.51Z" fill="#FFCD1D"/>
<path d="M308.158 810L297 850.559L337.559 861.717C343.739 839.324 330.574 816.167 308.158 810Z" fill="#DAF4FC"/>
<path d="M727.797 3.51244C728.304 3.43133 728.815 3.62663 729.139 4.02477L734.069 10.0929C734.393 10.4911 734.48 11.0315 734.297 11.5108L731.507 18.8151C731.324 19.2943 730.899 19.6395 730.392 19.7206L722.672 20.9567C722.165 21.0378 721.654 20.8425 721.33 20.4444L716.4 14.3762C716.076 13.9781 715.989 13.4376 716.173 12.9584L718.962 5.65407C719.145 5.17484 719.57 4.82966 720.077 4.74855L727.797 3.51244Z" fill="#379C6B"/>
<rect x="37" y="420.75" width="42" height="42" rx="5" transform="rotate(-25 37 420.75)" fill="#F2C94C"/>
<rect x="1806" y="836.678" width="30" height="30" rx="5" transform="rotate(-25 1806 836.678)" fill="#BCECD5"/>
<path opacity="0.4" d="M1674.56 1922L1685.72 1962.56L1645.16 1973.72C1638.98 1951.32 1652.14 1928.17 1674.56 1922Z" fill="#765FEF"/>
<rect width="42" height="42" rx="5" transform="matrix(-0.906308 -0.422618 -0.422618 0.906308 188.815 2044.75)" fill="#F2C94C"/>
<circle cx="12" cy="12" r="12" transform="matrix(-1 0 0 1 1870 2199)" fill="#F2C94C"/>
<rect width="30" height="30" rx="5" transform="matrix(-0.906308 -0.422618 -0.422618 0.906308 1832.87 2566.68)" fill="#009BFF"/>
<rect width="30" height="30" rx="5" transform="matrix(-0.906308 -0.422618 -0.422618 0.906308 92.8682 3795.68)" fill="#BCECD5"/>
</svg>
