<svg width="430" height="2493" viewBox="0 0 430 2493" fill="none" xmlns="http://www.w3.org/2000/svg">
<mask id="mask0_79_1605" style="mask-type:alpha" maskUnits="userSpaceOnUse" x="0" y="0" width="430" height="2493">
<rect width="430" height="2493" fill="#D9D9D9"/>
</mask>
<g mask="url(#mask0_79_1605)">
<path fill-rule="evenodd" clip-rule="evenodd" d="M751.394 726.974C751.368 727.831 750.714 728.537 749.861 728.631C748.989 728.726 748.328 729.463 748.328 730.341V1533C748.328 1615.84 681.17 1683 598.328 1683H108.093C25.2507 1683 -41.9066 1615.84 -41.9066 1533V858.435C-41.9066 828.066 -82.0384 803.938 -110.498 793.338C-156.463 776.218 -186.806 723.745 -178.271 676.137C-164.91 601.619 -144.517 532.024 -117.521 469.793C-133.035 449.13 -139.347 421.857 -132.38 394.894C-100.809 272.72 -31.2588 168.773 69.0234 104.47C170.254 39.5581 296.088 19.4495 429.879 54.0224C431.232 54.3721 432.569 54.7513 433.89 55.1593C588.728 87.6188 765.258 -1.80453 839.652 -157.844C849.527 -189.48 857.708 -222.741 863.934 -257.465C872.47 -305.073 916.652 -329.789 962.617 -312.669C993.143 -301.3 1016.78 -274.339 1026.71 -243.566C1036.69 -224.813 1039.95 -202.413 1034.22 -180.224C1028.21 -156.968 1020.73 -134.402 1011.91 -112.602C997.805 -60.0228 979.785 -10.4516 958.457 35.5865C995.24 48.7943 1016.56 88.1137 1006.59 126.7C969.863 268.807 877.087 384.496 759.805 456.214L751.394 726.974Z" fill="url(#paint0_linear_79_1605)"/>
<path fill-rule="evenodd" clip-rule="evenodd" d="M751.394 1632.07C751.368 1632.93 750.714 1633.64 749.861 1633.73C748.989 1633.82 748.328 1634.56 748.328 1635.44V2438.1C748.328 2520.94 681.17 2588.1 598.328 2588.1H108.093C25.2507 2588.1 -41.9066 2520.94 -41.9066 2438.1V1763.53C-41.9066 1733.16 -82.0384 1709.04 -110.498 1698.44C-156.463 1681.32 -186.806 1628.84 -178.271 1581.24C-164.91 1506.72 -144.517 1437.12 -117.521 1374.89C-133.035 1354.23 -139.347 1326.95 -132.38 1299.99C-100.809 1177.82 -31.2588 1073.87 69.0234 1009.57C170.254 944.656 296.088 924.548 429.879 959.121C431.232 959.47 432.569 959.849 433.89 960.257C588.728 992.717 765.258 903.294 839.652 747.254C849.527 715.618 857.708 682.358 863.934 647.633C872.47 600.025 916.652 575.309 962.617 592.429C993.143 603.798 1016.78 630.759 1026.71 661.532C1036.69 680.285 1039.95 702.685 1034.22 724.874C1028.21 748.131 1020.73 770.696 1011.91 792.496C997.805 845.075 979.785 894.647 958.457 940.685C995.24 953.892 1016.56 993.212 1006.59 1031.8C969.863 1173.91 877.087 1289.59 759.805 1361.31L751.394 1632.07Z" fill="url(#paint1_linear_79_1605)"/>
<path opacity="0.1" fill-rule="evenodd" clip-rule="evenodd" d="M831.228 204.081C809.107 226.905 793.126 254.981 787.359 286.673L773.773 361.346C841.115 311.425 897.411 242.097 931.611 156.408C934.703 148.66 938.912 141.724 943.977 135.708C908.612 162.507 870.757 185.423 831.228 204.081ZM-152.331 810.374L-178.868 1002.68C-190.192 1084.75 -132.845 1160.46 -50.7799 1171.78L489.358 1246.31C571.423 1257.64 647.13 1200.29 658.454 1118.23L735.498 559.897C882.092 497.953 1008.34 377.164 1072.61 216.13C1088.26 176.92 1069.38 131.764 1030.45 115.272C1009.04 106.205 986.025 107.69 967.042 117.382C1045.87 51.7482 1110.51 -34.046 1150.98 -135.424C1168.98 -180.529 1147.26 -232.472 1102.48 -251.443C1088.19 -257.493 1073.29 -259.459 1059.03 -257.868C1021.5 -262.05 984.559 -241.143 969.784 -204.124C898.314 -25.0536 728.436 80.2445 566.108 84.2195C526.976 83.253 488.53 76.2803 452.276 62.9099C450.893 62.2381 449.486 61.5985 448.055 60.9926C376.209 30.5608 304.686 16.7578 236.062 18.1595C162.828 16.6698 92.582 32.3883 28.3885 63.6224C-89.519 120.992 -180.418 227.334 -233.408 360.105C-251.411 405.209 -229.696 457.153 -184.908 476.124C-167.886 483.334 -147.011 496.179 -132.803 511.832C-191.762 567.487 -238.936 638.843 -271.581 720.637C-287.231 759.847 -268.354 805.003 -229.419 821.494C-202.535 832.882 -173.117 827.626 -152.331 810.374Z" fill="url(#paint2_linear_79_1605)"/>
<circle opacity="0.3" cx="81.6986" cy="490.546" r="164.727" transform="rotate(180 81.6986 490.546)" stroke="white" stroke-width="2"/>
<circle opacity="0.3" cx="353.119" cy="192.728" r="164.727" transform="rotate(180 353.119 192.728)" stroke="white" stroke-width="2"/>
<circle opacity="0.3" cx="-80.41" cy="326.579" r="164.727" transform="rotate(180 -80.41 326.579)" stroke="white" stroke-width="2"/>
<rect opacity="0.2" x="18.9622" y="693.408" width="5.57713" height="5.57713" rx="2.78857" transform="rotate(-25 18.9622 693.408)" fill="#F1EFFD"/>
<rect x="111.914" y="854.773" width="5.57713" height="5.57713" rx="2.78857" transform="rotate(-25 111.914 854.773)" fill="#2D9CDB"/>
<path d="M256.946 923.066C255.905 920.833 256.871 918.178 259.104 917.137C261.338 916.095 263.992 917.062 265.034 919.295C266.075 921.528 265.109 924.183 262.876 925.224C260.642 926.266 257.988 925.299 256.946 923.066Z" fill="#FF8E15"/>
<path opacity="0.2" d="M6.86894 1043.84L9.1055 1056.52L-2.99758 1052.12L6.86894 1043.84Z" fill="#F2994A"/>
<path d="M170.607 540.587L183.291 542.824L175.012 552.691L170.607 540.587Z" fill="#F2C94C"/>
<circle cx="4.0899" cy="810.773" r="9.29522" fill="#4473FA"/>
</g>
<defs>
<linearGradient id="paint0_linear_79_1605" x1="19.3477" y1="809.307" x2="1628.09" y2="745.665" gradientUnits="userSpaceOnUse">
<stop stop-color="#FF2F4E"/>
<stop offset="1" stop-color="#FF8E15"/>
</linearGradient>
<linearGradient id="paint1_linear_79_1605" x1="19.3477" y1="1714.41" x2="1628.09" y2="1650.76" gradientUnits="userSpaceOnUse">
<stop stop-color="#FF2F4E"/>
<stop offset="1" stop-color="#FF8E15"/>
</linearGradient>
<linearGradient id="paint2_linear_79_1605" x1="-132.78" y1="843.943" x2="1629.73" y2="1019.87" gradientUnits="userSpaceOnUse">
<stop stop-color="#FF2F4E"/>
<stop offset="1" stop-color="#FF8E15"/>
</linearGradient>
</defs>
</svg>
