<svg width="329" height="56" viewBox="0 0 329 56" fill="none" xmlns="http://www.w3.org/2000/svg">
<path fill-rule="evenodd" clip-rule="evenodd" d="M87.2457 50.6299V54.7289H66.0728V50.6299L70.8538 50.0709V25.4149H66.0107V21.5643L70.8538 20.3222V17.7138C70.8538 14.9397 71.5988 12.4141 73.089 10.1368C74.5792 7.85963 76.5764 6.05856 79.0807 4.73363C81.5851 3.40871 84.286 2.74624 87.1836 2.74624C88.7151 2.74624 90.1018 2.95326 91.3436 3.3673V12.3727C90.8883 11.8758 89.9983 11.3893 88.6737 10.9132C87.3491 10.437 86.0452 10.1989 84.762 10.1989C83.396 10.1989 82.4233 10.5509 81.8438 11.2547C81.2643 11.9586 80.9745 13.1179 80.9745 14.7327V20.2601H88.4254V25.4149H80.9745V50.0709L87.2457 50.6299ZM59.9839 55.1636C58.2868 55.3706 56.838 55.4741 55.6376 55.4741C54.0646 55.4741 53.0194 55.2464 52.502 54.7909C51.9846 54.3355 51.7259 53.4246 51.7259 52.0583V50.6298C50.691 51.872 49.3043 52.9795 47.5658 53.9525C45.8273 54.9255 43.8197 55.412 41.543 55.412C39.5975 55.412 37.8279 54.9876 36.2343 54.1388C34.6406 53.29 33.3781 52.0686 32.4468 50.4746C31.5154 48.8805 31.0497 46.9863 31.0497 44.7919C31.0497 41.1483 32.9021 38.3536 36.6068 36.4076C40.3116 34.4616 45.1857 33.4679 51.2291 33.4265V32.1844C51.2291 30.6939 51.0636 29.5138 50.7324 28.6444C50.4013 27.7749 49.8011 27.1228 48.9318 26.688C48.0625 26.2533 46.7793 26.0359 45.0822 26.0359C43.0539 26.0359 41.2429 26.274 39.6493 26.7501C38.0556 27.2263 36.3895 27.8577 34.651 28.6444L32.5399 24.1727C33.2022 23.6345 34.2784 22.9824 35.7686 22.2164C37.2588 21.4504 39.049 20.788 41.1394 20.229C43.2298 19.6701 45.4133 19.3906 47.69 19.3906C51.0015 19.3906 53.5989 19.8253 55.4823 20.6948C57.3658 21.5643 58.711 22.9099 59.5182 24.7317C60.3254 26.5535 60.729 29.0377 60.729 32.1844V50.6298H63.9577V54.5425C63.0056 54.7495 61.681 54.9565 59.9839 55.1636ZM24.2774 52.462C21.8352 54.4287 18.2339 55.412 13.4736 55.412C11.2798 55.412 9.33428 55.2361 7.63714 54.8841C5.93999 54.5322 4.07728 54.0664 2.04899 53.4867L0 52.9278V44.6677H5.8986L7.45086 49.5741C7.74062 50.0295 8.41327 50.4436 9.46881 50.8162C10.5243 51.1888 11.5902 51.3751 12.6665 51.3751C14.3636 51.3751 15.6572 51.0129 16.5471 50.2883C17.4371 49.5637 17.8821 48.6218 17.8821 47.4625C17.8821 46.2204 17.3026 45.1956 16.1435 44.3882C14.9845 43.5809 13.0804 42.5975 10.4312 41.4382L8.07177 40.3824C5.38118 39.1817 3.36324 37.7222 2.01794 36.0039C0.672648 34.2857 0 32.1016 0 29.4518C0 27.5472 0.558815 25.8393 1.67644 24.328C2.79407 22.8168 4.40843 21.6264 6.51951 20.757C8.63058 19.8875 11.1142 19.4527 13.9704 19.4527C15.9573 19.4527 17.6751 19.577 19.1239 19.8254C20.5727 20.0738 22.0421 20.3843 23.5323 20.757C24.5258 21.0468 25.2708 21.2124 25.7676 21.2538V29.7002H20.2415L18.6272 24.9181C18.4202 24.5454 17.9235 24.2038 17.137 23.8933C16.3505 23.5828 15.4605 23.4275 14.4671 23.4275C12.8941 23.4275 11.6523 23.7691 10.7417 24.4523C9.831 25.1354 9.37567 26.0567 9.37567 27.216C9.37567 28.5409 9.89309 29.5863 10.9279 30.3523C11.9628 31.1183 13.6185 32.0188 15.8952 33.0539L17.1991 33.6129C20.552 35.0206 23.1805 36.5422 25.0846 38.1777C26.9887 39.8131 27.9407 42.0593 27.9407 44.9161C27.9407 47.98 26.7196 50.4953 24.2774 52.462ZM46.3857 49.6982C44.937 49.6982 43.7986 49.1807 42.9708 48.1456C42.1429 47.1105 41.729 45.6614 41.729 43.7982C41.729 41.9764 42.5051 40.4859 44.0574 39.3266C45.6096 38.1673 48.0001 37.5876 51.2288 37.5876V47.4624C50.5665 48.0835 49.78 48.6114 48.8694 49.0461C47.9587 49.4809 47.1308 49.6982 46.3857 49.6982ZM107.865 55.412C110.555 55.412 113.194 54.8738 115.781 53.7973C118.368 52.7208 120.2 51.5821 121.276 50.3814L119.538 46.593C118.503 47.2554 117.147 47.8454 115.471 48.363C113.794 48.8805 112.19 49.1393 110.659 49.1393C107.927 49.1393 105.805 48.2181 104.295 46.3756C102.784 44.5331 101.925 41.8522 101.718 38.3329H121.152C121.525 36.7181 121.711 34.5858 121.711 31.936C121.628 27.9198 120.438 24.8145 118.141 22.6201C115.843 20.4257 112.522 19.3285 108.175 19.3285C104.74 19.3285 101.749 20.0427 99.2031 21.4712C96.6574 22.8996 94.6809 24.9801 93.2735 27.7128C91.8661 30.4454 91.1624 33.6957 91.1624 37.4634C91.1624 43.0115 92.5284 47.39 95.2604 50.5988C97.9924 53.8076 102.194 55.412 107.865 55.412ZM101.655 34.2339H111.838L111.9 31.6255C111.9 29.017 111.548 27.0296 110.844 25.6633C110.141 24.297 108.94 23.6138 107.243 23.6138C105.505 23.6138 104.159 24.3694 103.207 25.8807C102.255 27.3919 101.738 30.1763 101.655 34.2339ZM142.143 54.7288V50.6299L138.542 50.0709V46.1582L138.418 42.9908L143.447 37.7739L149.594 50.0709L146.8 50.6299V54.7288H164.061V50.6299L160.832 50.0709L150.587 31.377L157.293 24.9801L162.385 24.1728V20.2601H145.496V24.1728L150.091 24.8559L138.418 37.1529L138.604 34.1097V5.10626L136.803 3.80203H136.617L124.261 5.29257V9.08103L128.483 9.88841V50.0709L125.068 50.6299V54.7288H142.143ZM183.127 50.6298V54.7288H165.245V50.6298L169.095 50.0709V26.7191L164.934 25.5391V20.8811L177.353 19.3906H177.477L179.402 20.6948V50.0709L183.127 50.6298ZM213.867 55.4741C215.978 55.4741 218.627 55.1636 221.814 54.5425V50.5677H218.585V5.29257L216.723 3.80203H216.412L202.69 5.04415V9.01892L208.651 9.88841V19.7632C207.368 19.4734 206.126 19.3285 204.925 19.3285C200.952 19.3285 197.568 20.1876 194.774 21.9059C191.98 23.6242 189.869 25.9221 188.44 28.7996C187.012 31.6772 186.298 34.8343 186.298 38.2708C186.298 43.9845 187.54 48.2698 190.024 51.1267C192.507 53.9836 195.736 55.412 199.71 55.412C201.697 55.412 203.622 54.9462 205.484 54.0146C207.347 53.083 208.775 51.8927 209.769 50.4435V51.9962C209.769 53.3625 210.089 54.2837 210.731 54.7599C211.373 55.236 212.418 55.4741 213.867 55.4741ZM198.778 46.8725C199.937 48.8391 201.49 49.8225 203.435 49.8225C204.594 49.8225 205.619 49.5844 206.509 49.1083C207.399 48.6321 208.113 48.0628 208.651 47.4004V24.918C208.361 24.5454 207.833 24.2349 207.067 23.9864C206.302 23.738 205.484 23.6138 204.615 23.6138C202.297 23.6138 200.455 24.7214 199.089 26.9365C197.723 29.1516 197.04 32.7641 197.04 37.7739C197.04 41.8729 197.619 44.9058 198.778 46.8725ZM239.142 55.412C243.902 55.412 247.503 54.4287 249.946 52.462C252.388 50.4953 253.609 47.98 253.609 44.9161C253.609 42.0593 252.657 39.8131 250.753 38.1777C248.849 36.5422 246.22 35.0206 242.867 33.6129L241.563 33.0539C239.287 32.0188 237.631 31.1183 236.596 30.3523C235.561 29.5863 235.044 28.5409 235.044 27.216C235.044 26.0567 235.499 25.1354 236.41 24.4523C237.321 23.7691 238.562 23.4275 240.135 23.4275C241.129 23.4275 242.019 23.5828 242.805 23.8933C243.592 24.2038 244.088 24.5454 244.295 24.9181L245.91 29.7002H251.436V21.2538C250.939 21.2124 250.194 21.0468 249.201 20.757C247.71 20.3843 246.241 20.0738 244.792 19.8254C243.343 19.577 241.626 19.4527 239.639 19.4527C236.783 19.4527 234.299 19.8875 232.188 20.757C230.077 21.6264 228.462 22.8168 227.345 24.328C226.227 25.8393 225.668 27.5472 225.668 29.4518C225.668 32.1016 226.341 34.2857 227.686 36.0039C229.032 37.7222 231.049 39.1817 233.74 40.3824L236.1 41.4382C238.749 42.5975 240.653 43.5809 241.812 44.3882C242.971 45.1956 243.55 46.2204 243.55 47.4625C243.55 48.6218 243.105 49.5637 242.215 50.2883C241.325 51.0129 240.032 51.3751 238.335 51.3751C237.259 51.3751 236.193 51.1888 235.137 50.8162C234.082 50.4436 233.409 50.0295 233.119 49.5741L231.567 44.6677H225.668V52.9278L227.717 53.4867C229.746 54.0664 231.608 54.5322 233.305 54.8841C235.003 55.2361 236.948 55.412 239.142 55.412ZM268.701 53.7352C267.542 54.7289 265.99 55.2257 264.045 55.2257C262.637 55.2257 261.406 54.7289 260.35 53.7352C259.295 52.7415 258.767 51.5201 258.767 50.0709C258.767 48.4148 259.367 47.0588 260.568 46.003C261.768 44.9472 263.258 44.4193 265.038 44.4193C266.652 44.4193 267.956 44.9368 268.95 45.9719C269.943 47.007 270.44 48.2284 270.44 49.6362C270.44 51.3751 269.86 52.7415 268.701 53.7352ZM300.062 55.4741C301.262 55.4741 302.711 55.3706 304.408 55.1636C306.105 54.9565 307.43 54.7495 308.382 54.5425V50.6298H305.153V32.1844C305.153 29.0377 304.75 26.5535 303.943 24.7317C303.135 22.9099 301.79 21.5643 299.907 20.6948C298.023 19.8253 295.426 19.3906 292.114 19.3906C289.838 19.3906 287.654 19.6701 285.564 20.229C283.473 20.788 281.683 21.4504 280.193 22.2164C278.703 22.9824 277.626 23.6345 276.964 24.1727L279.075 28.6444C280.814 27.8577 282.48 27.2263 284.074 26.7501C285.667 26.274 287.478 26.0359 289.506 26.0359C291.204 26.0359 292.487 26.2533 293.356 26.688C294.225 27.1228 294.826 27.7749 295.157 28.6444C295.488 29.5138 295.653 30.6939 295.653 32.1844V33.4265C289.61 33.4679 284.736 34.4616 281.031 36.4076C277.326 38.3536 275.474 41.1483 275.474 44.7919C275.474 46.9863 275.94 48.8805 276.871 50.4746C277.802 52.0686 279.065 53.29 280.659 54.1388C282.252 54.9876 284.022 55.412 285.967 55.412C288.244 55.412 290.252 54.9255 291.99 53.9525C293.729 52.9795 295.115 51.872 296.15 50.6298V52.0583C296.15 53.4246 296.409 54.3355 296.926 54.7909C297.444 55.2464 298.489 55.4741 300.062 55.4741ZM287.395 48.1456C288.223 49.1807 289.361 49.6982 290.81 49.6982C291.555 49.6982 292.383 49.4809 293.294 49.0461C294.204 48.6114 294.991 48.0835 295.653 47.4624V37.5876C292.424 37.5876 290.034 38.1673 288.482 39.3266C286.929 40.4859 286.153 41.9764 286.153 43.7982C286.153 45.6614 286.567 47.1105 287.395 48.1456ZM318.817 14.8569C320.845 14.8569 322.418 14.3083 323.536 13.2111C324.653 12.1139 325.212 10.6751 325.212 8.89471C325.212 7.40417 324.715 6.18276 323.722 5.23047C322.729 4.27818 321.3 3.80203 319.438 3.80203C317.575 3.80203 316.095 4.36099 314.998 5.47889C313.901 6.5968 313.353 8.02523 313.353 9.7642C313.353 11.2547 313.85 12.4762 314.843 13.4284C315.836 14.3807 317.14 14.8569 318.755 14.8569H318.817ZM329 50.6298V54.7288H311.118V50.6298L314.967 50.0709V26.7191L310.807 25.5391V20.8811L323.225 19.3906H323.35L325.274 20.6948V50.0709L329 50.6298Z" fill="#4A4A4A"/>
<circle cx="171.915" cy="8.78798" r="8.78798" fill="#5939FA"/>
</svg>
