<svg width="150" height="24" viewBox="0 0 150 24" fill="none" xmlns="http://www.w3.org/2000/svg">
<g clip-path="url(#clip0_230_1030)">
<path d="M53.6236 7.2221C52.7476 7.2221 51.3916 6.2261 49.9636 6.2621C48.0796 6.2861 46.3516 7.3541 45.3796 9.0461C43.4236 12.4421 44.8756 17.4581 46.7836 20.2181C47.7196 21.5621 48.8236 23.0741 50.2876 23.0261C51.6916 22.9661 52.2196 22.1141 53.9236 22.1141C55.6156 22.1141 56.0956 23.0261 57.5836 22.9901C59.0956 22.9661 60.0556 21.6221 60.9796 20.2661C62.0476 18.7061 62.4916 17.1941 62.5156 17.1101C62.4796 17.0981 59.5756 15.9821 59.5396 12.6221C59.5156 9.8141 61.8316 8.4701 61.9396 8.4101C60.6196 6.4781 58.5916 6.2621 57.8836 6.2141C56.0356 6.0701 54.4876 7.2221 53.6236 7.2221ZM56.7436 4.3901C57.5236 3.4541 58.0396 2.1461 57.8956 0.850098C56.7796 0.898098 55.4356 1.5941 54.6316 2.5301C53.9116 3.3581 53.2876 4.6901 53.4556 5.9621C54.6916 6.0581 55.9636 5.3261 56.7436 4.3901Z" fill="#222224"/>
</g>
<g clip-path="url(#clip1_230_1030)">
<path d="M3 5.479L10.377 4.463V11.59H3V5.479ZM3 18.521L10.377 19.538V12.498H3V18.521ZM11.188 19.646L21 21V12.498H11.188V19.646ZM11.188 4.354V11.59H21V3L11.188 4.354Z" fill="#222224"/>
</g>
<g clip-path="url(#clip2_230_1030)">
<path d="M93.827 21.763C89.35 20.771 86 16.777 86 12C86 10.178 86.487 8.47001 87.339 6.99801L91.622 14.417C92.1032 15.2891 92.8339 15.9976 93.7205 16.4516C94.6071 16.9056 95.6091 17.0844 96.598 16.965L93.828 21.763H93.827ZM96 22L100.287 14.575C100.755 13.7977 101.001 12.9073 101 12C101.002 10.9179 100.651 9.86474 100 9.00001H105.542C105.84 9.94701 106 10.955 106 12C106 17.523 101.523 22 96 22ZM98.572 13.545C98.3033 13.9929 97.9222 14.3629 97.4666 14.6183C97.0109 14.8737 96.4965 15.0057 95.9741 15.0012C95.4518 14.9966 94.9397 14.8557 94.4886 14.5924C94.0374 14.3291 93.6629 13.9526 93.402 13.5L93.373 13.45C93.1198 12.9911 92.9912 12.4739 93 11.9498C93.0089 11.4258 93.1549 10.9132 93.4235 10.4631C93.6921 10.0131 94.0739 9.64123 94.5309 9.38464C94.9879 9.12805 95.5042 8.99567 96.0283 9.00069C96.5524 9.0057 97.0661 9.14794 97.5181 9.41323C97.9701 9.67852 98.3447 10.0576 98.6047 10.5127C98.8646 10.9679 99.0008 11.4831 98.9996 12.0073C98.9984 12.5314 98.86 13.046 98.598 13.5L98.572 13.545ZM88.632 5.23901C89.5677 4.2169 90.7062 3.40099 91.9748 2.84331C93.2434 2.28564 94.6142 1.99843 96 2.00001C97.7557 1.99929 99.4807 2.46104 101.001 3.33878C102.522 4.21652 103.784 5.47929 104.662 7.00001H96C95.0204 6.99988 94.0624 7.28744 93.2448 7.82698C92.4272 8.36653 91.7861 9.13431 91.401 10.035L88.632 5.23901Z" fill="#222224"/>
</g>
<g clip-path="url(#clip3_230_1030)">
<path d="M132.382 3.96801C133.976 2.69108 135.958 1.99676 138 2.00001C140.125 2.00001 142.078 2.73601 143.618 3.96801L145.071 2.51501L146.485 3.92901L145.032 5.38201C146.309 6.97575 147.003 8.95782 147 11V12H129V11C129 8.87501 129.736 6.92201 130.968 5.38201L129.515 3.93001L130.929 2.51601L132.382 3.96901V3.96801ZM129 14H147V21C147 21.2652 146.895 21.5196 146.707 21.7071C146.52 21.8947 146.265 22 146 22H130C129.735 22 129.48 21.8947 129.293 21.7071C129.105 21.5196 129 21.2652 129 21V14ZM135 9.00001C135.265 9.00001 135.52 8.89465 135.707 8.70712C135.895 8.51958 136 8.26523 136 8.00001C136 7.73479 135.895 7.48044 135.707 7.2929C135.52 7.10537 135.265 7.00001 135 7.00001C134.735 7.00001 134.48 7.10537 134.293 7.2929C134.105 7.48044 134 7.73479 134 8.00001C134 8.26523 134.105 8.51958 134.293 8.70712C134.48 8.89465 134.735 9.00001 135 9.00001ZM141 9.00001C141.265 9.00001 141.52 8.89465 141.707 8.70712C141.895 8.51958 142 8.26523 142 8.00001C142 7.73479 141.895 7.48044 141.707 7.2929C141.52 7.10537 141.265 7.00001 141 7.00001C140.735 7.00001 140.48 7.10537 140.293 7.2929C140.105 7.48044 140 7.73479 140 8.00001C140 8.26523 140.105 8.51958 140.293 8.70712C140.48 8.89465 140.735 9.00001 141 9.00001Z" fill="#222224"/>
</g>
<defs>
<clipPath id="clip0_230_1030">
<rect width="24" height="24" fill="white" transform="translate(42)"/>
</clipPath>
<clipPath id="clip1_230_1030">
<rect width="24" height="24" fill="white"/>
</clipPath>
<clipPath id="clip2_230_1030">
<rect width="24" height="24" fill="white" transform="translate(84)"/>
</clipPath>
<clipPath id="clip3_230_1030">
<rect width="24" height="24" fill="white" transform="translate(126)"/>
</clipPath>
</defs>
</svg>
