<svg width="200" height="200" viewBox="0 0 200 200" fill="none" xmlns="http://www.w3.org/2000/svg">
<g filter="url(#filter0_d_230_975)">
<rect x="36" y="35" width="128" height="128" rx="25" fill="url(#paint0_linear_230_975)"/>
</g>
<path d="M77.4 107.66C75.32 107.66 73.46 107.48 71.82 107.12C70.18 106.76 68.38 106.28 66.42 105.68C65.22 105.24 64.32 105 63.72 104.96L64.2 94.1H68.04L69.06 101.9C69.74 102.54 70.84 103.12 72.36 103.64C73.92 104.12 75.62 104.36 77.46 104.36C80.5 104.36 82.8 103.68 84.36 102.32C85.96 100.96 86.76 99.08 86.76 96.68C86.76 95.12 86.32 93.78 85.44 92.66C84.6 91.54 83.46 90.58 82.02 89.78C80.62 88.98 78.68 88.04 76.2 86.96C73.96 85.96 72 84.94 70.32 83.9C68.68 82.86 67.24 81.48 66 79.76C64.8 78 64.2 75.9 64.2 73.46C64.2 71.26 64.78 69.3 65.94 67.58C67.14 65.82 68.84 64.44 71.04 63.44C73.28 62.44 75.88 61.94 78.84 61.94C80.68 61.94 82.3 62.08 83.7 62.36C85.14 62.64 86.76 63.02 88.56 63.5C89.36 63.78 90.04 63.96 90.6 64.04L90.24 74.12H86.58L85.38 66.74C84.98 66.34 84.14 65.96 82.86 65.6C81.62 65.24 80.26 65.06 78.78 65.06C76.02 65.06 73.92 65.64 72.48 66.8C71.08 67.96 70.38 69.64 70.38 71.84C70.38 73.44 70.8 74.78 71.64 75.86C72.52 76.94 73.6 77.86 74.88 78.62C76.16 79.38 78.2 80.42 81 81.74C83.6 82.98 85.72 84.1 87.36 85.1C89 86.1 90.4 87.42 91.56 89.06C92.76 90.66 93.36 92.58 93.36 94.82C93.36 96.94 92.76 98.98 91.56 100.94C90.4 102.9 88.6 104.52 86.16 105.8C83.76 107.04 80.84 107.66 77.4 107.66ZM130.665 107C129.985 107 129.105 106.2 128.025 104.6C126.985 102.96 125.485 100.4 123.525 96.92C123.285 96.48 122.605 95.3 121.485 93.38C120.405 91.42 119.385 89.74 118.425 88.34C117.505 86.94 116.685 85.84 115.965 85.04L109.905 91.88V103.46L115.365 104.06V107H98.505V104.06L103.485 103.46V66.14L98.565 65.42V62.42H114.885V65.42L109.905 66.14V87.14L127.545 66.14L122.505 65.42V62.42H137.325V65.42L132.705 66.14L119.745 80.66C121.145 81.86 122.625 83.6 124.185 85.88C125.785 88.16 127.725 91.1 130.005 94.7C131.965 97.78 133.385 99.98 134.265 101.3C135.185 102.58 135.905 103.28 136.425 103.4L139.245 104.06V107H130.665Z" fill="white"/>
<path d="M66.8242 139L65.9453 136.656H60.5449L59.6465 139H56.502L62.0684 124.996H64.4609L70.0469 139H66.8242ZM61.5215 134.117H64.9688L63.2695 129.645L61.5215 134.117ZM76.3359 131.861H73.9238V134.957C73.9238 135.465 74.0768 135.846 74.3828 136.1C74.6953 136.354 75.1087 136.48 75.623 136.48C75.8965 136.48 76.1341 136.454 76.3359 136.402V139C75.9323 139.104 75.4798 139.156 74.9785 139.156C73.8001 139.156 72.8594 138.788 72.1562 138.053C71.4531 137.317 71.1016 136.298 71.1016 134.996V131.861H69.2754V129.176H71.1016V126.598H73.9238V129.176H76.3359V131.861ZM87.0586 139.195C85.5286 139.195 84.2624 138.74 83.2598 137.828C82.2572 136.917 81.7559 135.761 81.7559 134.361H84.6758C84.6758 134.973 84.8971 135.468 85.3398 135.846C85.7826 136.217 86.3555 136.402 87.0586 136.402C87.7096 136.402 88.237 136.262 88.6406 135.982C89.0508 135.702 89.2559 135.335 89.2559 134.879C89.2559 134.618 89.1712 134.391 89.002 134.195C88.8327 134 88.6048 133.84 88.3184 133.717C88.0384 133.593 87.7129 133.482 87.3418 133.385C86.9772 133.281 86.5898 133.176 86.1797 133.072C85.776 132.962 85.3691 132.841 84.959 132.711C84.5553 132.581 84.168 132.411 83.7969 132.203C83.4323 131.995 83.1068 131.754 82.8203 131.48C82.5404 131.201 82.3158 130.846 82.1465 130.416C81.9772 129.98 81.8926 129.488 81.8926 128.941C81.8926 127.743 82.3483 126.754 83.2598 125.973C84.1777 125.191 85.3301 124.801 86.7168 124.801C87.3874 124.801 88.0026 124.885 88.5625 125.055C89.1224 125.217 89.5977 125.445 89.9883 125.738C90.3789 126.025 90.7077 126.367 90.9746 126.764C91.2415 127.154 91.4368 127.577 91.5605 128.033C91.6908 128.482 91.7559 128.958 91.7559 129.459H88.6992C88.6862 128.912 88.4909 128.466 88.1133 128.121C87.7422 127.776 87.2441 127.604 86.6191 127.604C86.0592 127.604 85.6133 127.721 85.2812 127.955C84.9557 128.189 84.793 128.512 84.793 128.922C84.793 129.169 84.8776 129.384 85.0469 129.566C85.2161 129.742 85.444 129.889 85.7305 130.006C86.0169 130.117 86.3424 130.221 86.707 130.318C87.0781 130.41 87.4688 130.507 87.8789 130.611C88.2891 130.715 88.6992 130.833 89.1094 130.963C89.5195 131.093 89.9069 131.266 90.2715 131.48C90.6426 131.695 90.9714 131.949 91.2578 132.242C91.5443 132.529 91.7721 132.896 91.9414 133.346C92.1107 133.795 92.1953 134.306 92.1953 134.879C92.1953 136.122 91.707 137.154 90.7305 137.975C89.7604 138.788 88.5365 139.195 87.0586 139.195ZM98.5527 139.195C97.1009 139.195 95.8867 138.71 94.9102 137.74C93.9336 136.77 93.4453 135.556 93.4453 134.098C93.4453 132.639 93.9336 131.422 94.9102 130.445C95.8867 129.469 97.1009 128.98 98.5527 128.98C99.7832 128.98 100.857 129.355 101.775 130.104C102.693 130.852 103.217 131.79 103.348 132.916H100.486C100.389 132.551 100.158 132.255 99.793 132.027C99.4349 131.793 99.0215 131.676 98.5527 131.676C97.8822 131.676 97.3223 131.907 96.873 132.369C96.4303 132.825 96.209 133.401 96.209 134.098C96.209 134.775 96.4303 135.344 96.873 135.807C97.3223 136.269 97.8822 136.5 98.5527 136.5C99.0215 136.5 99.4382 136.376 99.8027 136.129C100.174 135.882 100.408 135.566 100.506 135.182H103.367C103.296 135.95 103.035 136.643 102.586 137.262C102.137 137.874 101.557 138.349 100.848 138.688C100.145 139.026 99.3796 139.195 98.5527 139.195ZM110.311 128.98C111.567 128.98 112.553 129.378 113.27 130.172C113.986 130.96 114.344 132.05 114.344 133.443V139H111.521V133.805C111.521 133.167 111.342 132.652 110.984 132.262C110.633 131.871 110.167 131.676 109.588 131.676C109.002 131.676 108.53 131.871 108.172 132.262C107.82 132.646 107.645 133.16 107.645 133.805V139H104.822V124.996H107.645V130.465C108.296 129.475 109.184 128.98 110.311 128.98ZM121.014 128.98C121.723 128.98 122.391 129.111 123.016 129.371C123.647 129.632 124.188 129.99 124.637 130.445C125.092 130.895 125.451 131.438 125.711 132.076C125.978 132.708 126.111 133.382 126.111 134.098C126.111 135.055 125.887 135.924 125.438 136.705C124.995 137.486 124.383 138.098 123.602 138.541C122.827 138.977 121.964 139.195 121.014 139.195C119.562 139.195 118.348 138.71 117.371 137.74C116.395 136.77 115.906 135.556 115.906 134.098C115.906 132.639 116.395 131.422 117.371 130.445C118.348 129.469 119.562 128.98 121.014 128.98ZM121.014 131.676C120.343 131.676 119.783 131.907 119.334 132.369C118.891 132.825 118.67 133.401 118.67 134.098C118.67 134.775 118.891 135.344 119.334 135.807C119.783 136.269 120.343 136.5 121.014 136.5C121.671 136.5 122.225 136.269 122.674 135.807C123.123 135.344 123.348 134.775 123.348 134.098C123.348 133.401 123.123 132.825 122.674 132.369C122.231 131.907 121.678 131.676 121.014 131.676ZM132.264 128.98C132.973 128.98 133.641 129.111 134.266 129.371C134.897 129.632 135.438 129.99 135.887 130.445C136.342 130.895 136.701 131.438 136.961 132.076C137.228 132.708 137.361 133.382 137.361 134.098C137.361 135.055 137.137 135.924 136.688 136.705C136.245 137.486 135.633 138.098 134.852 138.541C134.077 138.977 133.214 139.195 132.264 139.195C130.812 139.195 129.598 138.71 128.621 137.74C127.645 136.77 127.156 135.556 127.156 134.098C127.156 132.639 127.645 131.422 128.621 130.445C129.598 129.469 130.812 128.98 132.264 128.98ZM132.264 131.676C131.593 131.676 131.033 131.907 130.584 132.369C130.141 132.825 129.92 133.401 129.92 134.098C129.92 134.775 130.141 135.344 130.584 135.807C131.033 136.269 131.593 136.5 132.264 136.5C132.921 136.5 133.475 136.269 133.924 135.807C134.373 135.344 134.598 134.775 134.598 134.098C134.598 133.401 134.373 132.825 133.924 132.369C133.481 131.907 132.928 131.676 132.264 131.676ZM141.609 124.996V139H138.787V124.996H141.609Z" fill="white"/>
<defs>
<filter id="filter0_d_230_975" x="0" y="0" width="200" height="200" filterUnits="userSpaceOnUse" color-interpolation-filters="sRGB">
<feFlood flood-opacity="0" result="BackgroundImageFix"/>
<feColorMatrix in="SourceAlpha" type="matrix" values="0 0 0 0 0 0 0 0 0 0 0 0 0 0 0 0 0 0 127 0" result="hardAlpha"/>
<feOffset dy="1"/>
<feGaussianBlur stdDeviation="18"/>
<feComposite in2="hardAlpha" operator="out"/>
<feColorMatrix type="matrix" values="0 0 0 0 0 0 0 0 0 0 0 0 0 0 0 0 0 0 0.07 0"/>
<feBlend mode="normal" in2="BackgroundImageFix" result="effect1_dropShadow_230_975"/>
<feBlend mode="normal" in="SourceGraphic" in2="effect1_dropShadow_230_975" result="shape"/>
</filter>
<linearGradient id="paint0_linear_230_975" x1="54.7042" y1="163" x2="235.617" y2="146.936" gradientUnits="userSpaceOnUse">
<stop stop-color="#4BC58A"/>
<stop offset="1" stop-color="#8BF8C3"/>
</linearGradient>
</defs>
</svg>
