<svg width="216" height="216" viewBox="0 0 216 216" fill="none" xmlns="http://www.w3.org/2000/svg">
<g filter="url(#filter0_d_230_968)">
<rect x="36" y="35" width="144" height="144" rx="20" fill="url(#paint0_linear_230_968)"/>
</g>
<path d="M83.9716 117.715C81.7182 117.715 79.7032 117.52 77.9266 117.13C76.1499 116.74 74.1999 116.22 72.0766 115.57C70.7766 115.093 69.8016 114.833 69.1516 114.79L69.6716 103.025H73.8316L74.9366 111.475C75.6732 112.168 76.8649 112.797 78.5116 113.36C80.2016 113.88 82.0432 114.14 84.0366 114.14C87.3299 114.14 89.8216 113.403 91.5116 111.93C93.2449 110.457 94.1116 108.42 94.1116 105.82C94.1116 104.13 93.6349 102.678 92.6816 101.465C91.7716 100.252 90.5366 99.2117 88.9766 98.345C87.4599 97.4783 85.3582 96.46 82.6716 95.29C80.2449 94.2067 78.1216 93.1017 76.3016 91.975C74.5249 90.8483 72.9649 89.3533 71.6216 87.49C70.3216 85.5833 69.6716 83.3083 69.6716 80.665C69.6716 78.2817 70.2999 76.1583 71.5566 74.295C72.8566 72.3883 74.6982 70.8933 77.0816 69.81C79.5082 68.7267 82.3249 68.185 85.5316 68.185C87.5249 68.185 89.2799 68.3367 90.7966 68.64C92.3566 68.9433 94.1116 69.355 96.0616 69.875C96.9282 70.1783 97.6649 70.3733 98.2716 70.46L97.8816 81.38H93.9166L92.6166 73.385C92.1832 72.9517 91.2732 72.54 89.8866 72.15C88.5432 71.76 87.0699 71.565 85.4666 71.565C82.4766 71.565 80.2016 72.1933 78.6416 73.45C77.1249 74.7067 76.3666 76.5267 76.3666 78.91C76.3666 80.6433 76.8216 82.095 77.7316 83.265C78.6849 84.435 79.8549 85.4317 81.2416 86.255C82.6282 87.0783 84.8382 88.205 87.8716 89.635C90.6883 90.9783 92.9849 92.1917 94.7616 93.275C96.5382 94.3583 98.0549 95.7883 99.3116 97.565C100.612 99.2983 101.262 101.378 101.262 103.805C101.262 106.102 100.612 108.312 99.3116 110.435C98.0549 112.558 96.1049 114.313 93.4616 115.7C90.8616 117.043 87.6982 117.715 83.9716 117.715ZM141.675 117C140.939 117 139.985 116.133 138.815 114.4C137.689 112.623 136.064 109.85 133.94 106.08C133.68 105.603 132.944 104.325 131.73 102.245C130.56 100.122 129.455 98.3017 128.415 96.785C127.419 95.2683 126.53 94.0767 125.75 93.21L119.185 100.62V113.165L125.1 113.815V117H106.835V113.815L112.23 113.165V72.735L106.9 71.955V68.705L124.58 68.705V71.955L119.185 72.735V95.485L138.295 72.735L132.835 71.955V68.705H148.89V71.955L143.885 72.735L129.845 88.465C131.362 89.765 132.965 91.65 134.655 94.12C136.389 96.59 138.49 99.775 140.96 103.675C143.084 107.012 144.622 109.395 145.575 110.825C146.572 112.212 147.352 112.97 147.915 113.1L150.97 113.815V117H141.675Z" fill="white"/>
<path d="M79.668 143L78.7891 140.656H73.3887L72.4902 143H69.3457L74.9121 128.996H77.3047L82.8906 143H79.668ZM74.3652 138.117H77.8125L76.1133 133.645L74.3652 138.117ZM89.1797 135.861H86.7676V138.957C86.7676 139.465 86.9206 139.846 87.2266 140.1C87.5391 140.354 87.9525 140.48 88.4668 140.48C88.7402 140.48 88.9779 140.454 89.1797 140.402V143C88.776 143.104 88.3236 143.156 87.8223 143.156C86.6439 143.156 85.7031 142.788 85 142.053C84.2969 141.317 83.9453 140.298 83.9453 138.996V135.861H82.1191V133.176H83.9453V130.598H86.7676V133.176H89.1797V135.861ZM103.799 128.996H106.777V143H103.799V137.18H97.8418V143H94.8828V128.996H97.8418V134.338H103.799V128.996ZM113.506 132.98C114.215 132.98 114.883 133.111 115.508 133.371C116.139 133.632 116.68 133.99 117.129 134.445C117.585 134.895 117.943 135.438 118.203 136.076C118.47 136.708 118.604 137.382 118.604 138.098C118.604 139.055 118.379 139.924 117.93 140.705C117.487 141.486 116.875 142.098 116.094 142.541C115.319 142.977 114.456 143.195 113.506 143.195C112.054 143.195 110.84 142.71 109.863 141.74C108.887 140.77 108.398 139.556 108.398 138.098C108.398 136.639 108.887 135.422 109.863 134.445C110.84 133.469 112.054 132.98 113.506 132.98ZM113.506 135.676C112.835 135.676 112.275 135.907 111.826 136.369C111.383 136.825 111.162 137.401 111.162 138.098C111.162 138.775 111.383 139.344 111.826 139.807C112.275 140.269 112.835 140.5 113.506 140.5C114.163 140.5 114.717 140.269 115.166 139.807C115.615 139.344 115.84 138.775 115.84 138.098C115.84 137.401 115.615 136.825 115.166 136.369C114.723 135.907 114.17 135.676 113.506 135.676ZM131.553 132.98C132.738 132.98 133.701 133.339 134.443 134.055C135.192 134.771 135.566 135.718 135.566 136.896V143H132.725V137.561C132.725 136.981 132.572 136.522 132.266 136.184C131.96 135.845 131.553 135.676 131.045 135.676C130.544 135.676 130.12 135.842 129.775 136.174C129.437 136.499 129.268 136.962 129.268 137.561V143H126.445V137.561C126.445 136.981 126.292 136.522 125.986 136.184C125.68 135.845 125.267 135.676 124.746 135.676C124.251 135.676 123.838 135.839 123.506 136.164C123.174 136.49 123.008 136.955 123.008 137.561V143H120.186V133.176H123.008V134.357C123.639 133.439 124.574 132.98 125.811 132.98C127.106 132.98 128.034 133.459 128.594 134.416C128.887 133.986 129.3 133.641 129.834 133.381C130.368 133.114 130.941 132.98 131.553 132.98ZM147.07 137.756C147.07 138.101 147.051 138.436 147.012 138.762H139.717C139.814 139.4 140.091 139.911 140.547 140.295C141.003 140.673 141.559 140.861 142.217 140.861C142.757 140.861 143.197 140.757 143.535 140.549C143.88 140.334 144.092 140.051 144.17 139.699H146.934C146.771 140.754 146.266 141.6 145.42 142.238C144.574 142.876 143.532 143.195 142.295 143.195C141.344 143.195 140.472 142.971 139.678 142.521C138.89 142.066 138.268 141.444 137.812 140.656C137.357 139.862 137.129 138.99 137.129 138.039C137.129 136.613 137.62 135.415 138.604 134.445C139.593 133.469 140.804 132.98 142.236 132.98C143.109 132.98 143.916 133.189 144.658 133.605C145.4 134.022 145.986 134.598 146.416 135.334C146.852 136.07 147.07 136.877 147.07 137.756ZM139.854 136.965H144.131C144.092 136.477 143.877 136.07 143.486 135.744C143.096 135.419 142.637 135.256 142.109 135.256C141.556 135.256 141.084 135.399 140.693 135.686C140.303 135.972 140.023 136.398 139.854 136.965Z" fill="white"/>
<defs>
<filter id="filter0_d_230_968" x="0" y="0" width="216" height="216" filterUnits="userSpaceOnUse" color-interpolation-filters="sRGB">
<feFlood flood-opacity="0" result="BackgroundImageFix"/>
<feColorMatrix in="SourceAlpha" type="matrix" values="0 0 0 0 0 0 0 0 0 0 0 0 0 0 0 0 0 0 127 0" result="hardAlpha"/>
<feOffset dy="1"/>
<feGaussianBlur stdDeviation="18"/>
<feComposite in2="hardAlpha" operator="out"/>
<feColorMatrix type="matrix" values="0 0 0 0 0 0 0 0 0 0 0 0 0 0 0 0 0 0 0.07 0"/>
<feBlend mode="normal" in2="BackgroundImageFix" result="effect1_dropShadow_230_968"/>
<feBlend mode="normal" in="SourceGraphic" in2="effect1_dropShadow_230_968" result="shape"/>
</filter>
<linearGradient id="paint0_linear_230_968" x1="57.0422" y1="179" x2="260.569" y2="160.928" gradientUnits="userSpaceOnUse">
<stop stop-color="#FF2F4E"/>
<stop offset="1" stop-color="#FF8E15"/>
</linearGradient>
</defs>
</svg>
