<svg width="200" height="200" viewBox="0 0 200 200" fill="none" xmlns="http://www.w3.org/2000/svg">
<g filter="url(#filter0_d_230_982)">
<rect x="36" y="35" width="128" height="128" rx="25" fill="url(#paint0_linear_230_982)"/>
</g>
<path d="M77.4 107.66C75.32 107.66 73.46 107.48 71.82 107.12C70.18 106.76 68.38 106.28 66.42 105.68C65.22 105.24 64.32 105 63.72 104.96L64.2 94.1H68.04L69.06 101.9C69.74 102.54 70.84 103.12 72.36 103.64C73.92 104.12 75.62 104.36 77.46 104.36C80.5 104.36 82.8 103.68 84.36 102.32C85.96 100.96 86.76 99.08 86.76 96.68C86.76 95.12 86.32 93.78 85.44 92.66C84.6 91.54 83.46 90.58 82.02 89.78C80.62 88.98 78.68 88.04 76.2 86.96C73.96 85.96 72 84.94 70.32 83.9C68.68 82.86 67.24 81.48 66 79.76C64.8 78 64.2 75.9 64.2 73.46C64.2 71.26 64.78 69.3 65.94 67.58C67.14 65.82 68.84 64.44 71.04 63.44C73.28 62.44 75.88 61.94 78.84 61.94C80.68 61.94 82.3 62.08 83.7 62.36C85.14 62.64 86.76 63.02 88.56 63.5C89.36 63.78 90.04 63.96 90.6 64.04L90.24 74.12H86.58L85.38 66.74C84.98 66.34 84.14 65.96 82.86 65.6C81.62 65.24 80.26 65.06 78.78 65.06C76.02 65.06 73.92 65.64 72.48 66.8C71.08 67.96 70.38 69.64 70.38 71.84C70.38 73.44 70.8 74.78 71.64 75.86C72.52 76.94 73.6 77.86 74.88 78.62C76.16 79.38 78.2 80.42 81 81.74C83.6 82.98 85.72 84.1 87.36 85.1C89 86.1 90.4 87.42 91.56 89.06C92.76 90.66 93.36 92.58 93.36 94.82C93.36 96.94 92.76 98.98 91.56 100.94C90.4 102.9 88.6 104.52 86.16 105.8C83.76 107.04 80.84 107.66 77.4 107.66ZM130.665 107C129.985 107 129.105 106.2 128.025 104.6C126.985 102.96 125.485 100.4 123.525 96.92C123.285 96.48 122.605 95.3 121.485 93.38C120.405 91.42 119.385 89.74 118.425 88.34C117.505 86.94 116.685 85.84 115.965 85.04L109.905 91.88V103.46L115.365 104.06V107H98.505V104.06L103.485 103.46V66.14L98.565 65.42V62.42H114.885V65.42L109.905 66.14V87.14L127.545 66.14L122.505 65.42V62.42H137.325V65.42L132.705 66.14L119.745 80.66C121.145 81.86 122.625 83.6 124.185 85.88C125.785 88.16 127.725 91.1 130.005 94.7C131.965 97.78 133.385 99.98 134.265 101.3C135.185 102.58 135.905 103.28 136.425 103.4L139.245 104.06V107H130.665Z" fill="white"/>
<path d="M59.3828 124.996H67.957V127.838H62.3418V130.758H67.3418V133.6H62.3418V139H59.3828V124.996ZM73.6504 128.98C74.36 128.98 75.0273 129.111 75.6523 129.371C76.2839 129.632 76.8242 129.99 77.2734 130.445C77.7292 130.895 78.0872 131.438 78.3477 132.076C78.6146 132.708 78.748 133.382 78.748 134.098C78.748 135.055 78.5234 135.924 78.0742 136.705C77.6315 137.486 77.0195 138.098 76.2383 138.541C75.4635 138.977 74.6009 139.195 73.6504 139.195C72.1986 139.195 70.9844 138.71 70.0078 137.74C69.0312 136.77 68.543 135.556 68.543 134.098C68.543 132.639 69.0312 131.422 70.0078 130.445C70.9844 129.469 72.1986 128.98 73.6504 128.98ZM73.6504 131.676C72.9798 131.676 72.4199 131.907 71.9707 132.369C71.528 132.825 71.3066 133.401 71.3066 134.098C71.3066 134.775 71.528 135.344 71.9707 135.807C72.4199 136.269 72.9798 136.5 73.6504 136.5C74.3079 136.5 74.8613 136.269 75.3105 135.807C75.7598 135.344 75.9844 134.775 75.9844 134.098C75.9844 133.401 75.7598 132.825 75.3105 132.369C74.8678 131.907 74.3145 131.676 73.6504 131.676ZM85.6914 128.98C85.8932 128.98 86.209 129.02 86.6387 129.098V131.656C86.2415 131.565 85.8997 131.52 85.6133 131.52C84.8906 131.52 84.2982 131.744 83.8359 132.193C83.3802 132.636 83.1523 133.29 83.1523 134.156V139H80.3301V129.176H83.1523V130.299C83.7578 129.42 84.6042 128.98 85.6914 128.98ZM92.1367 124.996H100.711V127.838H95.0957V130.357H100.096V133.199H95.0957V136.158H100.711V139H92.1367V124.996ZM113.826 128.98C115.011 128.98 115.975 129.339 116.717 130.055C117.465 130.771 117.84 131.718 117.84 132.896V139H114.998V133.561C114.998 132.981 114.845 132.522 114.539 132.184C114.233 131.845 113.826 131.676 113.318 131.676C112.817 131.676 112.394 131.842 112.049 132.174C111.71 132.499 111.541 132.962 111.541 133.561V139H108.719V133.561C108.719 132.981 108.566 132.522 108.26 132.184C107.954 131.845 107.54 131.676 107.02 131.676C106.525 131.676 106.111 131.839 105.779 132.164C105.447 132.49 105.281 132.955 105.281 133.561V139H102.459V129.176H105.281V130.357C105.913 129.439 106.847 128.98 108.084 128.98C109.38 128.98 110.307 129.459 110.867 130.416C111.16 129.986 111.574 129.641 112.107 129.381C112.641 129.114 113.214 128.98 113.826 128.98ZM127.088 129.176H129.91V139H127.088V137.604C126.372 138.665 125.33 139.195 123.963 139.195C123.13 139.195 122.361 138.967 121.658 138.512C120.962 138.049 120.411 137.428 120.008 136.646C119.604 135.859 119.402 135.003 119.402 134.078C119.402 133.154 119.604 132.301 120.008 131.52C120.411 130.732 120.962 130.113 121.658 129.664C122.361 129.208 123.13 128.98 123.963 128.98C125.33 128.98 126.372 129.514 127.088 130.582V129.176ZM124.627 136.5C125.317 136.5 125.9 136.269 126.375 135.807C126.85 135.338 127.088 134.762 127.088 134.078C127.088 133.401 126.85 132.828 126.375 132.359C125.9 131.891 125.317 131.656 124.627 131.656C123.95 131.656 123.37 131.894 122.889 132.369C122.407 132.838 122.166 133.408 122.166 134.078C122.166 134.755 122.404 135.328 122.879 135.797C123.361 136.266 123.943 136.5 124.627 136.5ZM132.068 124.928C132.407 124.589 132.811 124.42 133.279 124.42C133.748 124.42 134.152 124.589 134.49 124.928C134.829 125.26 134.998 125.657 134.998 126.119C134.998 126.588 134.829 126.992 134.49 127.33C134.152 127.669 133.748 127.838 133.279 127.838C132.811 127.838 132.407 127.669 132.068 127.33C131.73 126.992 131.561 126.588 131.561 126.119C131.561 125.657 131.73 125.26 132.068 124.928ZM131.873 129.176H134.695V139H131.873V129.176ZM139.676 124.996V139H136.854V124.996H139.676Z" fill="white"/>
<defs>
<filter id="filter0_d_230_982" x="0" y="0" width="200" height="200" filterUnits="userSpaceOnUse" color-interpolation-filters="sRGB">
<feFlood flood-opacity="0" result="BackgroundImageFix"/>
<feColorMatrix in="SourceAlpha" type="matrix" values="0 0 0 0 0 0 0 0 0 0 0 0 0 0 0 0 0 0 127 0" result="hardAlpha"/>
<feOffset dy="1"/>
<feGaussianBlur stdDeviation="18"/>
<feComposite in2="hardAlpha" operator="out"/>
<feColorMatrix type="matrix" values="0 0 0 0 0 0 0 0 0 0 0 0 0 0 0 0 0 0 0.07 0"/>
<feBlend mode="normal" in2="BackgroundImageFix" result="effect1_dropShadow_230_982"/>
<feBlend mode="normal" in="SourceGraphic" in2="effect1_dropShadow_230_982" result="shape"/>
</filter>
<linearGradient id="paint0_linear_230_982" x1="54.7042" y1="163" x2="235.617" y2="146.936" gradientUnits="userSpaceOnUse">
<stop stop-color="#765FEF"/>
<stop offset="1" stop-color="#B7A9FF"/>
</linearGradient>
</defs>
</svg>
