<svg width="333" height="333" viewBox="0 0 333 333" fill="none" xmlns="http://www.w3.org/2000/svg">
<g clip-path="url(#clip0_11_3094)">
<path d="M166.5 305.25C89.8686 305.25 27.7502 243.131 27.7502 166.5C27.7502 89.8682 89.8686 27.7499 166.5 27.7499C243.132 27.7499 305.25 89.8682 305.25 166.5C305.25 243.131 243.132 305.25 166.5 305.25ZM166.5 277.5C195.939 277.5 224.173 265.805 244.989 244.989C265.806 224.172 277.5 195.939 277.5 166.5C277.5 137.061 265.806 108.828 244.989 88.011C224.173 67.1945 195.939 55.4999 166.5 55.4999C137.061 55.4999 108.828 67.1945 88.0114 88.011C67.1948 108.828 55.5002 137.061 55.5002 166.5C55.5002 195.939 67.1948 224.172 88.0114 244.989C108.828 265.805 137.061 277.5 166.5 277.5ZM152.667 222L93.7952 163.128L113.414 143.509L152.667 182.761L231.144 104.27L250.777 123.89L152.667 222Z" fill="#4DCC8F"/>
</g>
<defs>
<clipPath id="clip0_11_3094">
<rect width="333" height="333" fill="white"/>
</clipPath>
</defs>
</svg>
