<svg width="36" height="36" viewBox="0 0 36 36" fill="none" xmlns="http://www.w3.org/2000/svg">
<rect opacity="0.4" width="36" height="36" rx="7.71429" fill="#4DCC8F"/>
<g clip-path="url(#clip0_14_3271)">
<path d="M9.783 8.826L18 7L26.217 8.826C26.4391 8.87536 26.6377 8.99897 26.78 9.1764C26.9224 9.35384 27 9.57452 27 9.802V19.789C26.9999 20.7767 26.756 21.7492 26.2899 22.62C25.8238 23.4908 25.1499 24.2331 24.328 24.781L18 29L11.672 24.781C10.8503 24.2332 10.1765 23.4911 9.71035 22.6205C9.24424 21.7498 9.00024 20.7776 9 19.79V9.802C9.00004 9.57452 9.07764 9.35384 9.21999 9.1764C9.36234 8.99897 9.56094 8.87536 9.783 8.826ZM11 10.604V19.789C11 20.4475 11.1626 21.0957 11.4733 21.6763C11.7839 22.2568 12.2332 22.7517 12.781 23.117L18 26.597L23.219 23.117C23.7667 22.7518 24.2158 22.2571 24.5265 21.6767C24.8372 21.0964 24.9998 20.4483 25 19.79V10.604L18 9.05L11 10.604Z" fill="#4DCC8F"/>
</g>
<defs>
<clipPath id="clip0_14_3271">
<rect width="24" height="24" fill="white" transform="translate(6 6)"/>
</clipPath>
</defs>
</svg>
