<svg width="36" height="36" viewBox="0 0 36 36" fill="none" xmlns="http://www.w3.org/2000/svg">
<rect opacity="0.4" width="36" height="36" rx="7.71429" fill="#4B70F9"/>
<g clip-path="url(#clip0_14_3228)">
<path d="M9.064 13.51C9.89601 11.8532 11.1724 10.4605 12.7504 9.48747C14.3285 8.51443 16.1461 7.99942 18 8C20.695 8 22.959 8.99 24.69 10.605L21.823 13.473C20.786 12.482 19.468 11.977 18 11.977C15.395 11.977 13.19 13.737 12.405 16.1C12.205 16.7 12.091 17.34 12.091 18C12.091 18.66 12.205 19.3 12.405 19.9C13.191 22.264 15.395 24.023 18 24.023C19.345 24.023 20.49 23.668 21.386 23.068C21.9054 22.726 22.3501 22.2822 22.6932 21.7635C23.0363 21.2448 23.2706 20.6619 23.382 20.05H18V16.182H27.418C27.536 16.836 27.6 17.518 27.6 18.227C27.6 21.273 26.51 23.837 24.618 25.577C22.964 27.105 20.7 28 18 28C16.6866 28.0005 15.386 27.7422 14.1725 27.2399C12.9591 26.7375 11.8565 26.0009 10.9278 25.0722C9.99907 24.1436 9.2625 23.041 8.76013 21.8275C8.25777 20.614 7.99948 19.3134 8 18C8 16.386 8.386 14.86 9.064 13.51Z" fill="#4B70F9"/>
</g>
<defs>
<clipPath id="clip0_14_3228">
<rect width="24" height="24" fill="white" transform="translate(6 6)"/>
</clipPath>
</defs>
</svg>
