<svg width="333" height="333" viewBox="0 0 333 333" fill="none" xmlns="http://www.w3.org/2000/svg">
<g clip-path="url(#clip0_11_3089)">
<path d="M166.5 305.25C89.8681 305.25 27.7498 243.132 27.7498 166.5C27.7498 89.8684 89.8681 27.75 166.5 27.75C243.131 27.75 305.25 89.8684 305.25 166.5C305.25 243.132 243.131 305.25 166.5 305.25ZM166.5 277.5C195.939 277.5 224.172 265.805 244.989 244.989C265.805 224.172 277.5 195.939 277.5 166.5C277.5 137.061 265.805 108.828 244.989 88.0111C224.172 67.1946 195.939 55.5 166.5 55.5C137.061 55.5 108.827 67.1946 88.0109 88.0111C67.1944 108.828 55.4998 137.061 55.4998 166.5C55.4998 195.939 67.1944 224.172 88.0109 244.989C108.827 265.805 137.061 277.5 166.5 277.5ZM166.5 146.881L205.738 107.628L225.371 127.261L186.119 166.5L225.371 205.738L205.738 225.372L166.5 186.119L127.261 225.372L107.628 205.738L146.88 166.5L107.628 127.261L127.261 107.628L166.5 146.881Z" fill="#FF2F4E"/>
</g>
<defs>
<clipPath id="clip0_11_3089">
<rect width="333" height="333" fill="white"/>
</clipPath>
</defs>
</svg>
