<svg width="329" height="56" viewBox="0 0 329 56" fill="none" xmlns="http://www.w3.org/2000/svg">
<path fill-rule="evenodd" clip-rule="evenodd" d="M87.2461 55.2509V51.1307L80.9749 50.5689V25.7856H88.4258V20.6042H80.9749V15.0483C80.9749 13.4252 81.2647 12.2599 81.8442 11.5524C82.4237 10.8449 83.3965 10.4912 84.7625 10.4912C86.0457 10.4912 87.3496 10.7305 88.6742 11.2091C89.9987 11.6877 90.8887 12.1767 91.344 12.6761V3.62426C90.1022 3.20809 88.7155 3 87.184 3C84.2864 3 81.5855 3.66588 79.0812 4.99764C76.5769 6.32941 74.5796 8.13977 73.0894 10.4287C71.5993 12.7177 70.8542 15.2564 70.8542 18.0448V20.6667L66.0111 21.9152V25.7856H70.8542V50.5689L66.0732 51.1307V55.2509H87.2461ZM55.6376 56C56.838 56 58.2868 55.896 59.9839 55.6879C61.681 55.4798 63.0056 55.2717 63.9577 55.0636V51.1307H60.729V32.5901C60.729 29.4272 60.3254 26.9301 59.5182 25.0989C58.711 23.2678 57.3657 21.9152 55.4823 21.0412C53.5989 20.1673 51.0015 19.7303 47.69 19.7303C45.4133 19.7303 43.2298 20.0112 41.1394 20.573C39.049 21.1349 37.2588 21.8007 35.7686 22.5707C34.2784 23.3406 33.2022 23.9961 32.5399 24.5371L34.651 29.0318C36.3895 28.2411 38.0556 27.6064 39.6492 27.1278C41.2429 26.6492 43.0539 26.4099 45.0822 26.4099C46.7793 26.4099 48.0625 26.6284 48.9318 27.0654C49.801 27.5024 50.4013 28.1578 50.7324 29.0318C51.0635 29.9058 51.2291 31.0919 51.2291 32.5901V33.8386C45.1856 33.8803 40.3115 34.8791 36.6068 36.8351C32.9021 38.7911 31.0497 41.6003 31.0497 45.2627C31.0497 47.4684 31.5154 49.3724 32.4467 50.9747C33.3781 52.577 34.6406 53.8047 36.2343 54.6578C37.8279 55.511 39.5975 55.9376 41.543 55.9376C43.8197 55.9376 45.8272 55.4486 47.5658 54.4706C49.3043 53.4925 50.691 52.3793 51.7258 51.1307V52.5665C51.7258 53.9399 51.9846 54.8555 52.502 55.3133C53.0194 55.7711 54.0646 56 55.6376 56ZM13.4736 55.9376C18.2339 55.9376 21.8352 54.9492 24.2774 52.9723C26.7196 50.9955 27.9407 48.4672 27.9407 45.3875C27.9407 42.5159 26.9887 40.2581 25.0846 38.6143C23.1805 36.9704 20.552 35.4409 17.1991 34.0259L15.8952 33.4641C13.6185 32.4236 11.9628 31.5185 10.9279 30.7485C9.89309 29.9786 9.37567 28.9278 9.37567 27.596C9.37567 26.4307 9.831 25.5047 10.7417 24.818C11.6523 24.1313 12.8941 23.788 14.4671 23.788C15.4605 23.788 16.3505 23.9441 17.137 24.2562C17.9235 24.5683 18.4202 24.9117 18.6272 25.2862L20.2415 30.0931H25.7676V21.6031C25.2708 21.5614 24.5258 21.395 23.5323 21.1037C22.0421 20.7291 20.5727 20.417 19.1239 20.1673C17.6751 19.9176 15.9573 19.7927 13.9704 19.7927C11.1142 19.7927 8.63058 20.2297 6.51951 21.1037C4.40843 21.9776 2.79407 23.1741 1.67644 24.6932C0.558815 26.2122 0 27.9289 0 29.8433C0 32.5069 0.672647 34.7022 2.01794 36.4293C3.36324 38.1565 5.38118 39.6235 8.07177 40.8304L10.4312 41.8916C13.0804 43.0569 14.9845 44.0453 16.1435 44.8569C17.3026 45.6684 17.8821 46.6985 17.8821 47.947C17.8821 49.1123 17.4371 50.0591 16.5471 50.7874C15.6572 51.5157 14.3636 51.8799 12.6665 51.8799C11.5902 51.8799 10.5243 51.6926 9.46881 51.318C8.41327 50.9435 7.74062 50.5273 7.45086 50.0695L5.8986 45.1378H0V53.4405L2.04899 54.0024C4.07728 54.585 5.93999 55.0532 7.63714 55.4069C9.33428 55.7607 11.2798 55.9376 13.4736 55.9376ZM42.9711 48.6337C43.799 49.6741 44.9373 50.1943 46.3861 50.1943C47.1312 50.1943 47.959 49.9759 48.8697 49.5389C49.7803 49.1019 50.5668 48.5713 51.2291 47.947V38.0212C48.0004 38.0212 45.6099 38.6038 44.0577 39.7691C42.5054 40.9344 41.7293 42.4327 41.7293 44.2638C41.7293 46.1366 42.1432 47.5932 42.9711 48.6337ZM115.781 54.3145C113.194 55.3965 110.555 55.9376 107.865 55.9376C102.194 55.9376 97.9922 54.3249 95.2602 51.0995C92.5282 47.8742 91.1622 43.4731 91.1622 37.8963C91.1622 34.1091 91.8659 30.8422 93.2733 28.0954C94.6807 25.3486 96.6572 23.2574 99.2029 21.8216C101.749 20.3857 104.739 19.6678 108.175 19.6678C112.521 19.6678 115.843 20.7707 118.141 22.9764C120.438 25.1822 121.628 28.3035 121.711 32.3404C121.711 35.0039 121.524 37.1472 121.152 38.7703H101.718C101.925 42.3078 102.783 45.0026 104.294 46.8545C105.805 48.7065 107.927 49.6325 110.659 49.6325C112.19 49.6325 113.794 49.3724 115.471 48.8522C117.147 48.332 118.503 47.7389 119.538 47.073L121.276 50.881C120.2 52.0879 118.368 53.2324 115.781 54.3145ZM111.838 34.6502H101.656C101.738 30.5717 102.256 27.7729 103.208 26.2538C104.16 24.7348 105.505 23.9753 107.244 23.9753C108.941 23.9753 110.141 24.662 110.845 26.0353C111.549 27.4087 111.9 29.4064 111.9 32.0283L111.838 34.6502ZM142.143 51.1307V55.2509H125.068V51.1307L128.483 50.5689V10.179L124.261 9.36749V5.55948L136.617 4.06125H136.803L138.604 5.3722V34.5253L138.418 37.5842L150.091 25.2238L145.496 24.5371V20.6042H162.384V24.5371L157.293 25.3486L150.587 31.7786L160.832 50.5689L164.061 51.1307V55.2509H146.8V51.1307L149.594 50.5689L143.447 38.2085L138.418 43.4523L138.542 46.636V50.5689L142.143 51.1307ZM172.944 15.1731C174.973 15.1731 176.546 14.6217 177.663 13.5188C178.781 12.416 179.34 10.9698 179.34 9.18021C179.34 7.68198 178.843 6.45426 177.849 5.49706C176.856 4.53985 175.428 4.06125 173.565 4.06125C171.702 4.06125 170.223 4.62309 169.126 5.74676C168.029 6.87044 167.48 8.30624 167.48 10.0542C167.48 11.5524 167.977 12.7801 168.971 13.7373C169.964 14.6945 171.268 15.1731 172.882 15.1731H172.944ZM183.127 51.1307V55.2509H165.245V51.1307L169.095 50.5689V27.0966L164.935 25.9105V21.2285L177.353 19.7303H177.477L179.402 21.0412V50.5689L183.127 51.1307ZM213.866 56C215.977 56 218.627 55.6879 221.814 55.0636V51.0683H218.585V5.55948L216.723 4.06125H216.412L202.69 5.30978V9.30507L208.651 10.179V20.1048C207.368 19.8135 206.126 19.6678 204.925 19.6678C200.952 19.6678 197.568 20.5314 194.774 22.2585C191.98 23.9857 189.868 26.2954 188.44 29.1879C187.012 32.0803 186.298 35.2536 186.298 38.7079C186.298 44.4511 187.54 48.7585 190.024 51.6302C192.507 54.5018 195.736 55.9376 199.71 55.9376C201.697 55.9376 203.621 55.4694 205.484 54.533C207.347 53.5966 208.775 52.4001 209.768 50.9435V52.5041C209.768 53.8775 210.089 54.8035 210.731 55.2821C211.372 55.7607 212.418 56 213.866 56ZM198.778 47.3539C199.937 49.3308 201.49 50.3192 203.435 50.3192C204.594 50.3192 205.619 50.0799 206.509 49.6013C207.399 49.1227 208.113 48.5505 208.651 47.8846V25.2862C208.361 24.9117 207.833 24.5995 207.067 24.3498C206.302 24.1001 205.484 23.9753 204.615 23.9753C202.297 23.9753 200.455 25.0885 199.089 27.3151C197.723 29.5416 197.04 33.1728 197.04 38.2085C197.04 42.3286 197.619 45.3771 198.778 47.3539ZM239.142 55.9376C243.902 55.9376 247.503 54.9492 249.945 52.9723C252.388 50.9955 253.609 48.4672 253.609 45.3875C253.609 42.5159 252.657 40.2581 250.753 38.6143C248.849 36.9704 246.22 35.4409 242.867 34.0259L241.563 33.4641C239.287 32.4236 237.631 31.5185 236.596 30.7485C235.561 29.9786 235.044 28.9278 235.044 27.596C235.044 26.4307 235.499 25.5047 236.41 24.818C237.32 24.1313 238.562 23.788 240.135 23.788C241.129 23.788 242.019 23.9441 242.805 24.2562C243.592 24.5683 244.088 24.9117 244.295 25.2862L245.91 30.0931H251.436V21.6031C250.939 21.5614 250.194 21.395 249.2 21.1037C247.71 20.7291 246.241 20.417 244.792 20.1673C243.343 19.9176 241.625 19.7927 239.638 19.7927C236.782 19.7927 234.299 20.2297 232.188 21.1037C230.076 21.9776 228.462 23.1741 227.344 24.6932C226.227 26.2122 225.668 27.9289 225.668 29.8433C225.668 32.5069 226.341 34.7022 227.686 36.4293C229.031 38.1565 231.049 39.6235 233.74 40.8304L236.099 41.8916C238.748 43.0569 240.653 44.0453 241.812 44.8569C242.971 45.6684 243.55 46.6985 243.55 47.947C243.55 49.1123 243.105 50.0591 242.215 50.7874C241.325 51.5157 240.032 51.8799 238.335 51.8799C237.258 51.8799 236.192 51.6926 235.137 51.318C234.081 50.9435 233.409 50.5273 233.119 50.0695L231.567 45.1378H225.668V53.4405L227.717 54.0024C229.745 54.585 231.608 55.0532 233.305 55.4069C235.002 55.7607 236.948 55.9376 239.142 55.9376ZM268.701 54.2521C267.542 55.2509 265.99 55.7503 264.044 55.7503C262.637 55.7503 261.406 55.2509 260.35 54.2521C259.294 53.2532 258.767 52.0255 258.767 50.5689C258.767 48.9042 259.367 47.5412 260.567 46.48C261.768 45.4187 263.258 44.8881 265.038 44.8881C266.652 44.8881 267.956 45.4083 268.95 46.4488C269.943 47.4892 270.44 48.7169 270.44 50.1319C270.44 51.8799 269.86 53.2532 268.701 54.2521ZM300.061 56C301.262 56 302.711 55.896 304.408 55.6879C306.105 55.4798 307.429 55.2717 308.382 55.0636V51.1307H305.153V32.5901C305.153 29.4272 304.749 26.9301 303.942 25.0989C303.135 23.2678 301.79 21.9152 299.906 21.0412C298.023 20.1673 295.425 19.7303 292.114 19.7303C289.837 19.7303 287.654 20.0112 285.563 20.573C283.473 21.1349 281.683 21.8007 280.192 22.5707C278.702 23.3406 277.626 23.9961 276.964 24.5371L279.075 29.0318C280.813 28.2411 282.479 27.6064 284.073 27.1278C285.667 26.6492 287.478 26.4099 289.506 26.4099C291.203 26.4099 292.486 26.6284 293.356 27.0654C294.225 27.5024 294.825 28.1578 295.156 29.0318C295.487 29.9058 295.653 31.0919 295.653 32.5901V33.8386C289.609 33.8803 284.735 34.8791 281.031 36.8351C277.326 38.7911 275.474 41.6003 275.474 45.2627C275.474 47.4684 275.939 49.3724 276.871 50.9747C277.802 52.577 279.064 53.8047 280.658 54.6578C282.252 55.511 284.021 55.9376 285.967 55.9376C288.243 55.9376 290.251 55.4486 291.99 54.4706C293.728 53.4925 295.115 52.3793 296.15 51.1307V52.5665C296.15 53.9399 296.408 54.8555 296.926 55.3133C297.443 55.7711 298.488 56 300.061 56ZM287.395 48.6337C288.223 49.6741 289.361 50.1943 290.81 50.1943C291.555 50.1943 292.383 49.9759 293.294 49.5389C294.204 49.1019 294.991 48.5713 295.653 47.947V38.0212C292.424 38.0212 290.034 38.6038 288.482 39.7691C286.929 40.9344 286.153 42.4327 286.153 44.2638C286.153 46.1366 286.567 47.5932 287.395 48.6337ZM318.817 15.1731C320.845 15.1731 322.418 14.6217 323.536 13.5188C324.654 12.416 325.212 10.9698 325.212 9.18021C325.212 7.68198 324.716 6.45426 323.722 5.49706C322.729 4.53985 321.301 4.06125 319.438 4.06125C317.575 4.06125 316.096 4.62309 314.999 5.74676C313.902 6.87044 313.353 8.30624 313.353 10.0542C313.353 11.5524 313.85 12.7801 314.843 13.7373C315.837 14.6945 317.141 15.1731 318.755 15.1731H318.817ZM329 51.1307V55.2509H311.118V51.1307L314.968 50.5689V27.0966L310.807 25.9105V21.2285L323.226 19.7303H323.35L325.275 21.0412V50.5689L329 51.1307Z" fill="#4A4A4A"/>
<circle cx="172" cy="9" r="9" fill="#FA6400"/>
</svg>
