<svg width="22" height="19" viewBox="0 0 22 19" fill="none" xmlns="http://www.w3.org/2000/svg">
<path d="M0.166016 17.6666V15.1208C0.166016 14.5069 0.319488 13.9427 0.626432 13.4281C0.933377 12.9135 1.39379 12.5208 2.00768 12.25C3.30768 11.6722 4.49935 11.2569 5.58268 11.0041C6.66602 10.7514 7.74935 10.625 8.83268 10.625C9.35629 10.625 9.9115 10.6566 10.4983 10.7198C11.0851 10.783 11.6855 10.8958 12.2993 11.0583L10.9723 12.3854C10.6112 12.3493 10.2546 12.3177 9.90247 12.2906C9.55039 12.2635 9.19379 12.25 8.83268 12.25C7.78546 12.25 6.83303 12.3448 5.97539 12.5343C5.11775 12.7239 4.01185 13.1166 2.65768 13.7125C2.35074 13.8569 2.12956 14.0646 1.99414 14.3354C1.85872 14.6062 1.79102 14.868 1.79102 15.1208V16.0416H10.4306L12.0556 17.6666H0.166016ZM14.9264 18.1L11.1077 14.2812L12.2452 13.1437L14.9264 15.825L20.6952 10.0562L21.8327 11.1937L14.9264 18.1ZM8.83268 8.9458C7.64102 8.9458 6.66602 8.56663 5.90768 7.8083C5.14935 7.04997 4.77018 6.07497 4.77018 4.8833C4.77018 3.69163 5.14935 2.71663 5.90768 1.9583C6.66602 1.19997 7.64102 0.820801 8.83268 0.820801C10.0243 0.820801 10.9993 1.19997 11.7577 1.9583C12.516 2.71663 12.8952 3.69163 12.8952 4.8833C12.8952 6.07497 12.516 7.04997 11.7577 7.8083C10.9993 8.56663 10.0243 8.9458 8.83268 8.9458ZM8.83268 7.3208C9.53685 7.3208 10.1191 7.09059 10.5796 6.63018C11.04 6.16976 11.2702 5.58747 11.2702 4.8833C11.2702 4.17913 11.04 3.59684 10.5796 3.13643C10.1191 2.67601 9.53685 2.4458 8.83268 2.4458C8.12852 2.4458 7.54622 2.67601 7.08581 3.13643C6.62539 3.59684 6.39518 4.17913 6.39518 4.8833C6.39518 5.58747 6.62539 6.16976 7.08581 6.63018C7.54622 7.09059 8.12852 7.3208 8.83268 7.3208Z" fill="black"/>
</svg>
