<svg width="134" height="134" viewBox="0 0 134 134" fill="none" xmlns="http://www.w3.org/2000/svg">
<g filter="url(#filter0_d_230_962)">
<rect x="111" y="91" width="88" height="88" rx="16.6038" transform="rotate(180 111 91)" fill="#4DCC8F"/>
</g>
<g clip-path="url(#clip0_230_962)">
<path d="M67 64.5C57.3348 64.5 49.5 56.6652 49.5 47C49.5 37.3348 57.3348 29.5 67 29.5C76.6652 29.5 84.5 37.3348 84.5 47C84.5 56.6652 76.6652 64.5 67 64.5ZM67 61C70.713 61 74.274 59.525 76.8995 56.8995C79.525 54.274 81 50.713 81 47C81 43.287 79.525 39.726 76.8995 37.1005C74.274 34.475 70.713 33 67 33C63.287 33 59.726 34.475 57.1005 37.1005C54.475 39.726 53 43.287 53 47C53 50.713 54.475 54.274 57.1005 56.8995C59.726 59.525 63.287 61 67 61ZM65.2553 54L57.83 46.5747L60.3045 44.1003L65.2553 49.051L75.1533 39.1512L77.6295 41.6257L65.2553 54Z" fill="white"/>
</g>
<defs>
<filter id="filter0_d_230_962" x="0.584906" y="0.509434" width="132.83" height="132.83" filterUnits="userSpaceOnUse" color-interpolation-filters="sRGB">
<feFlood flood-opacity="0" result="BackgroundImageFix"/>
<feColorMatrix in="SourceAlpha" type="matrix" values="0 0 0 0 0 0 0 0 0 0 0 0 0 0 0 0 0 0 127 0" result="hardAlpha"/>
<feOffset dy="19.9245"/>
<feGaussianBlur stdDeviation="11.2075"/>
<feComposite in2="hardAlpha" operator="out"/>
<feColorMatrix type="matrix" values="0 0 0 0 0 0 0 0 0 0 0 0 0 0 0 0 0 0 0.07 0"/>
<feBlend mode="normal" in2="BackgroundImageFix" result="effect1_dropShadow_230_962"/>
<feBlend mode="normal" in="SourceGraphic" in2="effect1_dropShadow_230_962" result="shape"/>
</filter>
<clipPath id="clip0_230_962">
<rect width="42" height="42" fill="white" transform="translate(46 26)"/>
</clipPath>
</defs>
</svg>
