<svg width="200" height="200" viewBox="0 0 200 200" fill="none" xmlns="http://www.w3.org/2000/svg">
<g filter="url(#filter0_d_197_2682)">
<rect x="36" y="35" width="128" height="128" rx="25" fill="url(#paint0_linear_197_2682)"/>
</g>
<path d="M90.6772 129.88C89.4505 129.88 88.0905 129.773 86.5972 129.56C85.1039 129.4 83.8505 129.187 82.8372 128.92V124.36C84.5972 124.893 86.7039 125.16 89.1572 125.16C93.3705 125.16 96.9972 124.493 100.037 123.16C103.131 121.827 105.477 120.013 107.077 117.72C108.731 115.427 109.557 112.92 109.557 110.2C109.557 106.573 108.437 103.773 106.197 101.8C104.011 99.7733 100.624 98.7333 96.0372 98.68L93.5572 99.32C91.7972 99.8533 90.9439 100.093 90.9972 100.04L89.6372 95.8C91.8772 95.3733 93.9839 94.7333 95.9572 93.88C99.2639 92.4933 101.931 90.6533 103.957 88.36C105.984 86.0133 106.997 83.5333 106.997 80.92C106.997 77.88 106.091 75.6667 104.277 74.28C102.517 72.84 100.251 72.12 97.4772 72.12C95.0772 72.12 92.7572 72.5467 90.5172 73.4C88.3305 74.2533 86.4372 75.2933 84.8372 76.52L82.6772 72.92C84.1705 71.4267 86.5439 69.9867 89.7972 68.6C93.1039 67.16 96.4639 66.44 99.8772 66.44C104.731 66.44 108.651 67.5067 111.637 69.64C114.624 71.72 116.117 74.92 116.117 79.24C116.117 83.0267 114.624 86.4667 111.637 89.56C108.651 92.6533 105.104 94.92 100.997 96.36C101.531 96.3067 102.277 96.28 103.237 96.28C106.384 96.28 109.157 96.8667 111.557 98.04C113.957 99.2133 115.797 100.813 117.077 102.84C118.411 104.813 119.077 107.053 119.077 109.56C119.077 113.453 117.904 116.947 115.557 120.04C113.211 123.133 109.877 125.533 105.557 127.24C101.291 129 96.3305 129.88 90.6772 129.88Z" fill="#FF2F4E"/>
<defs>
<filter id="filter0_d_197_2682" x="0" y="0" width="200" height="200" filterUnits="userSpaceOnUse" color-interpolation-filters="sRGB">
<feFlood flood-opacity="0" result="BackgroundImageFix"/>
<feColorMatrix in="SourceAlpha" type="matrix" values="0 0 0 0 0 0 0 0 0 0 0 0 0 0 0 0 0 0 127 0" result="hardAlpha"/>
<feOffset dy="1"/>
<feGaussianBlur stdDeviation="18"/>
<feComposite in2="hardAlpha" operator="out"/>
<feColorMatrix type="matrix" values="0 0 0 0 0 0 0 0 0 0 0 0 0 0 0 0 0 0 0.07 0"/>
<feBlend mode="normal" in2="BackgroundImageFix" result="effect1_dropShadow_197_2682"/>
<feBlend mode="normal" in="SourceGraphic" in2="effect1_dropShadow_197_2682" result="shape"/>
</filter>
<linearGradient id="paint0_linear_197_2682" x1="54.7042" y1="163" x2="235.617" y2="146.936" gradientUnits="userSpaceOnUse">
<stop stop-color="#FFCED5"/>
<stop offset="1" stop-color="#FFF2F4"/>
</linearGradient>
</defs>
</svg>
