<svg width="224" height="180" viewBox="0 0 224 180" fill="none" xmlns="http://www.w3.org/2000/svg">
<mask id="mask0_172_920" style="mask-type:alpha" maskUnits="userSpaceOnUse" x="0" y="0" width="224" height="180">
<rect opacity="0.5" width="224" height="180" fill="#D9D9D9"/>
</mask>
<g mask="url(#mask0_172_920)">
<path opacity="0.3" d="M19.959 86.0723L19.0721 85.6101L19.0674 85.6194L19.959 86.0723ZM59.0215 11.1211V10.1211H58.415L58.1347 10.6589L59.0215 11.1211ZM103.455 11.1211L104.387 11.4837L104.917 10.1211H103.455V11.1211ZM73.9141 87.0488L72.9821 86.6862L72.6547 87.5278L73.4586 87.9391L73.9141 87.0488ZM90.7598 103.406L89.8939 103.907L89.9005 103.918L89.9074 103.929L90.7598 103.406ZM83.9238 159.803L83.2232 159.089L83.2167 159.096L83.9238 159.803ZM135.438 86.0723L134.548 85.6146L134.546 85.6194L135.438 86.0723ZM174.012 11.1211V10.1211H173.402L173.123 10.6635L174.012 11.1211ZM218.934 11.1211L219.864 11.4889L220.404 10.1211H218.934V11.1211ZM188.904 87.0488L187.974 86.681L187.634 87.541L188.465 87.9472L188.904 87.0488ZM206.238 103.406L205.372 103.907L205.379 103.918L205.386 103.929L206.238 103.406ZM6.31055 127.576C6.31055 122.347 7.41966 116.771 9.6638 110.84L7.79323 110.132C5.48008 116.246 4.31055 122.063 4.31055 127.576H6.31055ZM9.6638 110.84C11.9235 104.868 15.648 96.7676 20.8506 86.5251L19.0674 85.6194C13.8533 95.8847 10.0909 104.06 7.79323 110.132L9.6638 110.84ZM20.8458 86.5344L59.9083 11.5833L58.1347 10.6589L19.0722 85.6101L20.8458 86.5344ZM59.0215 12.1211H103.455V10.1211H59.0215V12.1211ZM102.523 10.7585L72.9821 86.6862L74.846 87.4114L104.387 11.4837L102.523 10.7585ZM73.4586 87.9391C80.2727 91.4253 85.7509 96.7359 89.8939 103.907L91.6256 102.906C87.3051 95.4282 81.5529 89.8338 74.3695 86.1586L73.4586 87.9391ZM89.9074 103.929C94.199 110.923 96.3516 118.796 96.3516 127.576H98.3516C98.3516 118.452 96.1096 110.212 91.6121 102.883L89.9074 103.929ZM96.3516 127.576C96.3516 140.007 91.981 150.491 83.2232 159.089L84.6244 160.516C93.7703 151.537 98.3516 140.536 98.3516 127.576H96.3516ZM83.2167 159.096C74.6223 167.69 64.0562 171.986 51.4531 171.986V173.986C64.5662 173.986 75.6472 169.494 84.6309 160.51L83.2167 159.096ZM51.4531 171.986C38.8498 171.986 28.1986 167.69 19.4389 159.089L18.0377 160.516C27.1816 169.494 38.3403 173.986 51.4531 173.986V171.986ZM19.4389 159.089C10.6811 150.491 6.31055 140.007 6.31055 127.576H4.31055C4.31055 140.536 8.89178 151.537 18.0377 160.516L19.4389 159.089ZM121.789 127.576C121.789 122.347 122.898 116.771 125.142 110.84L123.272 110.132C120.959 116.246 119.789 122.063 119.789 127.576H121.789ZM125.142 110.84C127.402 104.868 131.127 96.7676 136.329 86.5251L134.546 85.6194C129.332 95.8847 125.569 104.06 123.272 110.132L125.142 110.84ZM136.327 86.5299L174.901 11.5787L173.123 10.6635L134.548 85.6147L136.327 86.5299ZM174.012 12.1211H218.934V10.1211H174.012V12.1211ZM218.004 10.7533L187.974 86.681L189.834 87.4166L219.864 11.4889L218.004 10.7533ZM188.465 87.9472C195.604 91.4372 201.236 96.7476 205.372 103.907L207.104 102.906C202.777 95.4164 196.853 89.8219 189.344 86.1504L188.465 87.9472ZM205.386 103.929C209.678 110.923 211.83 118.796 211.83 127.576H213.83C213.83 118.452 211.588 110.212 207.091 102.883L205.386 103.929ZM211.83 127.576C211.83 140.007 207.459 150.491 198.702 159.089L200.103 160.516C209.249 151.537 213.83 140.536 213.83 127.576H211.83ZM198.702 159.089C189.939 167.692 179.368 171.986 166.932 171.986V173.986C179.885 173.986 190.962 169.491 200.103 160.516L198.702 159.089ZM166.932 171.986C154.328 171.986 143.677 167.69 134.917 159.089L133.516 160.516C142.66 169.494 153.819 173.986 166.932 173.986V171.986ZM134.917 159.089C126.16 150.491 121.789 140.007 121.789 127.576H119.789C119.789 140.536 124.37 151.537 133.516 160.516L134.917 159.089Z" fill="white"/>
</g>
</svg>
