<?xml version="1.0" encoding="UTF-8"?>
<svg width="92px" height="92px" viewBox="0 0 92 92" version="1.1" xmlns="http://www.w3.org/2000/svg" xmlns:xlink="http://www.w3.org/1999/xlink">
    <title>ICON_Reflect</title>
    <g id="KIDSl-UI" stroke="none" stroke-width="1" fill="none" fill-rule="evenodd">
        <g id="ICON_Reflect">
            <circle id="Oval-Copy-3" stroke="#F7274A" stroke-width="3" fill="#FFFFFF" cx="46" cy="46" r="44.5"></circle>
            <g id="personThought" transform="translate(14.000000, 15.000000)" fill="#F7274A" fill-rule="nonzero">
                <path d="M63,15.4263686 C62.8041132,16.2862672 62.6577757,17.1615259 62.4043808,18.0037215 C60.6280491,23.9050787 55.3447525,27.8640491 49.2802191,27.8645698 C44.0459583,27.8650904 38.8119543,27.8669128 33.5776936,27.862487 C32.5587226,27.861706 31.7245989,27.1418696 31.6018808,26.1885093 C31.4706905,25.1687627 32.0208681,24.2562756 32.9730887,23.9732875 C33.2406039,23.8938842 33.5368731,23.8918015 33.8197923,23.8915411 C38.9721554,23.8871154 44.1245184,23.8941445 49.2768815,23.8865947 C54.7617131,23.8785242 59.2357891,19.1924279 59.0753314,13.6368005 C58.92694,8.49745456 54.9108747,4.28465402 49.734122,4.00374858 C44.5789348,3.7238845 40.4083166,7.53263941 39.6614819,12.2963166 C39.6293904,12.5004221 39.5783006,12.7029656 39.5626399,12.9081125 C39.4943491,13.8073223 39.0491751,14.4415073 38.2137678,14.7208507 C37.3834951,14.9986321 36.6369172,14.7835924 36.0567019,14.1012447 C35.2906123,13.2002125 34.3632948,12.5454607 33.2388068,12.2018137 C29.5174702,11.064394 25.8110242,13.8734483 25.6967782,17.9102599 C25.6659704,19.0000377 24.904502,19.843535 23.8996513,19.9010698 C22.8398598,19.9617287 21.8386033,19.2457974 21.8124166,18.2414107 C21.7877703,17.3008071 21.8568313,16.3247974 22.0840395,15.4154343 C23.6244341,9.24827132 30.4399099,6.15362541 36.0346229,9.04312444 C36.1252495,9.0899854 36.2169029,9.13476366 36.29649,9.17485581 C36.7385832,8.30714699 37.1167501,7.40975955 37.6248236,6.59515982 C39.9171874,2.9189173 43.1859047,0.735977453 47.450487,0.119235116 C47.5652464,0.10257344 47.6738443,0.040873173 47.7852661,0 C48.7667542,0 49.748499,0 50.7299871,0 C50.8416657,0.0395714796 50.9505202,0.0971063282 51.0655364,0.116111052 C56.7475385,1.05515268 60.515857,4.30313807 62.3838422,9.80721847 C62.671896,10.6561829 62.7987218,11.5613805 63,12.4405442 C63,13.435819 63,14.4310938 63,15.4263686 Z" id="Path"></path>
                <path d="M1.75040307,63 C0.711274516,62.9239462 -0.099603192,61.9990173 0.009926574,60.8472338 C0.255794091,58.2642802 1.08633099,55.8627058 2.44511284,53.6772704 C5.50684001,48.7528537 9.86837146,45.887116 15.5401751,45.1404299 C15.7291075,45.1156014 15.9142103,45.0615013 16.1011002,45.0212529 C10.2064074,44.0197475 6.29729258,38.7895475 6.86766437,32.9247819 C7.44263181,27.0121888 12.4054281,22.8467417 18.01085,23.0247232 C23.2445346,23.1909438 27.9410382,27.7089564 28.2859676,33.0857755 C28.6689388,39.0545596 24.816759,44.0064184 19.0471701,45.0215142 C19.7400927,45.1438275 20.436079,45.2501983 21.1254272,45.391329 C28.3829869,46.8758151 34.0139403,52.9444361 35.1025998,60.4473634 C35.2915322,61.749425 34.6287367,62.8170528 33.5245031,62.9892845" id="Path"></path>
                <path d="M44.2121673,31.5 C45.9265122,31.4989434 47.2473533,32.8115 47.25,34.5181407 C47.2526388,36.2332393 45.9389331,37.5555753 44.2298736,37.5576923 C42.5155287,37.5598042 41.194159,36.2453975 41.1923077,34.5361137 C41.1907235,32.8236582 42.5062791,31.5007936 44.2121673,31.5 Z" id="Path"></path>
                <path d="M33.9230769,40.6041092 C33.921229,38.8858421 35.2314419,37.5592796 36.9319702,37.5576923 C38.6523183,37.5561079 39.9781226,38.8636402 39.9807692,40.5641987 C39.9834078,42.2872234 38.678216,43.6106142 36.9718739,43.6153846 C35.2531114,43.6201293 33.9249287,42.308368 33.9230769,40.6041092 Z" id="Path"></path>
            </g>
        </g>
    </g>
</svg>